Lilex-Regular.ufo
<glyph name="quotesingle" format="1">
  <unicode hex="0027"/>
  <advance width="1200" height="1560"/>
  <outline>
    <contour>
      <point x="676" y="926" type="line" name="hr00"/>
      <point x="676" y="1480" type="line"/>
      <point x="524" y="1480" type="line"/>
      <point x="524" y="926" type="line"/>
    </contour>
  </outline>
</glyph>
<glyph name="parenright" format="1">
  <unicode hex="0029"/>
  <advance width="1200" height="1560"/>
  <outline>
    <contour>
      <point x="790" y="622" type="curve" smooth="yes" name="hr00"/>
      <point x="790" y="1012"/>
      <point x="600" y="1352"/>
      <point x="374" y="1520" type="curve"/>
      <point x="212" y="1520" type="line"/>
      <point x="444" y="1346"/>
      <point x="640" y="1050"/>
      <point x="640" y="708" type="curve" smooth="yes"/>
      <point x="640" y="536" type="line" smooth="yes"/>
      <point x="640" y="194"/>
      <point x="444" y="-102"/>
      <point x="212" y="-276" type="curve"/>
      <point x="374" y="-276" type="line"/>
      <point x="600" y="-108"/>
      <point x="790" y="232"/>
    </contour>
  </outline>
</glyph>
<glyph name="asterisk" format="1">
  <unicode hex="002A"/>
  <advance width="1200" height="1560"/>
  <outline>
    <contour>
      <point x="600" y="448" type="line" name="hr00"/>
      <point x="850" y="104" type="line"/>
      <point x="964" y="188" type="line"/>
      <point x="716" y="528" type="line"/>
      <point x="1114" y="660" type="line"/>
      <point x="1072" y="792" type="line"/>
      <point x="674" y="664" type="line"/>
      <point x="674" y="1096" type="line"/>
      <point x="526" y="1096" type="line"/>
      <point x="526" y="664" type="line"/>
      <point x="128" y="792" type="line"/>
      <point x="86" y="660" type="line"/>
      <point x="484" y="528" type="line"/>
      <point x="236" y="188" type="line"/>
      <point x="350" y="104" type="line"/>
    </contour>
  </outline>
</glyph>
<glyph name="plus" format="1">
  <unicode hex="002B"/>
  <advance width="1200" height="1560"/>
  <outline>
    <contour>
      <point x="676" y="124" type="line" name="hr00"/>
      <point x="676" y="542" type="line"/>
      <point x="1076" y="542" type="line"/>
      <point x="1076" y="678" type="line"/>
      <point x="676" y="678" type="line"/>
      <point x="676" y="1096" type="line"/>
      <point x="524" y="1096" type="line"/>
      <point x="524" y="678" type="line"/>
      <point x="124" y="678" type="line"/>
      <point x="124" y="542" type="line"/>
      <point x="524" y="542" type="line"/>
      <point x="524" y="124" type="line"/>
    </contour>
  </outline>
</glyph>
<glyph name="hyphen" format="1">
  <unicode hex="002D"/>
  <advance width="1200" height="1560"/>
  <outline>
    <contour>
      <point x="890" y="524" type="line" name="hr00"/>
      <point x="890" y="692" type="line"/>
      <point x="310" y="692" type="line"/>
      <point x="310" y="524" type="line"/>
    </contour>
  </outline>
</glyph>
<glyph name="three" format="1">
  <unicode hex="0033"/>
  <advance width="1200" height="1560"/>
  <outline>
    <contour>
      <point x="386" y="804" type="line"/>
      <point x="386" y="660" type="line"/>
      <point x="552" y="660" type="line" smooth="yes"/>
      <point x="756" y="660"/>
      <point x="860" y="564"/>
      <point x="860" y="400" type="curve" smooth="yes"/>
      <point x="860" y="384" type="line" smooth="yes"/>
      <point x="860" y="218"/>
      <point x="750" y="122"/>
      <point x="554" y="122" type="curve" smooth="yes"/>
      <point x="378" y="122"/>
      <point x="296" y="200"/>
      <point x="222" y="310" type="curve"/>
      <point x="96" y="214" type="line"/>
      <point x="182" y="94"/>
      <point x="308" y="-24"/>
      <point x="554" y="-24" type="curve" smooth="yes"/>
      <point x="844" y="-24"/>
      <point x="1036" y="142"/>
      <point x="1036" y="382" type="curve" smooth="yes"/>
      <point x="1036" y="592"/>
      <point x="890" y="704"/>
      <point x="736" y="734" type="curve"/>
      <point x="736" y="742" type="line"/>
      <point x="888" y="780"/>
      <point x="1008" y="888"/>
      <point x="1008" y="1068" type="curve" smooth="yes" name="hr01"/>
      <point x="1008" y="1294"/>
      <point x="818" y="1420"/>
      <point x="580" y="1420" type="curve" smooth="yes"/>
      <point x="352" y="1420"/>
      <point x="228" y="1304"/>
      <point x="156" y="1192" type="curve"/>
      <point x="282" y="1096" type="line"/>
      <point x="340" y="1202"/>
      <point x="428" y="1274"/>
      <point x="576" y="1274" type="curve" smooth="yes"/>
      <point x="728" y="1274"/>
      <point x="832" y="1198"/>
      <point x="832" y="1050" type="curve" smooth="yes"/>
      <point x="832" y="1036" type="line" smooth="yes"/>
      <point x="832" y="902"/>
      <point x="734" y="804"/>
      <point x="540" y="804" type="curve" smooth="yes"/>
    </contour>
  </outline>
</glyph>
<glyph name="five" format="1">
  <unicode hex="0035"/>
  <advance width="1200" height="1560"/>
  <outline>
    <contour>
      <point x="1002" y="1396" type="line" name="hr00"/>
      <point x="242" y="1396" type="line"/>
      <point x="192" y="628" type="line"/>
      <point x="334" y="608" type="line"/>
      <point x="394" y="674"/>
      <point x="458" y="726"/>
      <point x="590" y="726" type="curve" smooth="yes"/>
      <point x="784" y="726"/>
      <point x="892" y="616"/>
      <point x="892" y="432" type="curve" smooth="yes"/>
      <point x="892" y="416" type="line" smooth="yes"/>
      <point x="892" y="234"/>
      <point x="786" y="122"/>
      <point x="594" y="122" type="curve"/>
      <point x="422" y="122"/>
      <point x="346" y="200"/>
      <point x="272" y="310" type="curve"/>
      <point x="146" y="214" type="line"/>
      <point x="232" y="94"/>
      <point x="354" y="-24"/>
      <point x="590" y="-24" type="curve" smooth="yes"/>
      <point x="888" y="-24"/>
      <point x="1066" y="166"/>
      <point x="1066" y="438" type="curve" smooth="yes"/>
      <point x="1066" y="708"/>
      <point x="888" y="868"/>
      <point x="644" y="868" type="curve" smooth="yes"/>
      <point x="496" y="868"/>
      <point x="420" y="810"/>
      <point x="352" y="716" type="curve"/>
      <point x="338" y="716" type="line"/>
      <point x="378" y="1250" type="line"/>
      <point x="1002" y="1250" type="line"/>
    </contour>
  </outline>
</glyph>
<glyph name="greater" format="1">
  <unicode hex="003E"/>
  <advance width="1200" height="1560"/>
  <outline>
    <contour>
      <point x="170" y="32" type="line" name="hr00"/>
      <point x="1030" y="530" type="line"/>
      <point x="1030" y="690" type="line"/>
      <point x="170" y="1188" type="line"/>
      <point x="170" y="1018" type="line"/>
      <point x="880" y="616" type="line"/>
      <point x="880" y="600" type="line"/>
      <point x="170" y="198" type="line"/>
    </contour>
  </outline>
</glyph>
<glyph name="A" format="1">
  <unicode hex="0041"/>
  <advance width="1200" height="1560"/>
  <outline>
    <contour>
      <point x="1140" y="0" type="line" name="hr00"/>
      <point x="712" y="1396" type="line"/>
      <point x="490" y="1396" type="line"/>
      <point x="62" y="0" type="line"/>
      <point x="236" y="0" type="line"/>
      <point x="354" y="398" type="line"/>
      <point x="844" y="398" type="line"/>
      <point x="962" y="0" type="line"/>
    </contour>
    <contour>
      <point x="804" y="544" type="line"/>
      <point x="394" y="544" type="line"/>
      <point x="590" y="1218" type="line"/>
      <point x="608" y="1218" type="line"/>
    </contour>
    <contour>
      <point x="600" y="0" type="move" name="bottom"/>
    </contour>
    <contour>
      <point x="1140" y="0" type="move" name="bottomright"/>
    </contour>
    <contour>
      <point x="600" y="1396" type="move" name="top"/>
    </contour>
  </outline>
</glyph>
<glyph name="B" format="1">
  <unicode hex="0042"/>
  <advance width="1200" height="1560"/>
  <outline>
    <contour>
      <point x="176" y="0" type="line"/>
      <point x="710" y="0" type="line" smooth="yes"/>
      <point x="926" y="0"/>
      <point x="1086" y="176"/>
      <point x="1086" y="402" type="curve" smooth="yes"/>
      <point x="1086" y="596"/>
      <point x="972" y="694"/>
      <point x="816" y="730" type="curve"/>
      <point x="816" y="736" type="line"/>
      <point x="944" y="776"/>
      <point x="1034" y="870"/>
      <point x="1034" y="1036" type="curve" smooth="yes" name="hr01"/>
      <point x="1034" y="1254"/>
      <point x="888" y="1396"/>
      <point x="650" y="1396" type="curve" smooth="yes"/>
      <point x="176" y="1396" type="line"/>
    </contour>
    <contour>
      <point x="344" y="146" type="line"/>
      <point x="344" y="652" type="line"/>
      <point x="660" y="652" type="line" smooth="yes"/>
      <point x="814" y="652"/>
      <point x="908" y="580"/>
      <point x="908" y="440" type="curve" smooth="yes" name="hr02"/>
      <point x="908" y="358" type="line" smooth="yes"/>
      <point x="908" y="216"/>
      <point x="814" y="146"/>
      <point x="660" y="146" type="curve" smooth="yes"/>
    </contour>
    <contour>
      <point x="344" y="790" type="line"/>
      <point x="344" y="1250" type="line"/>
      <point x="632" y="1250" type="line" smooth="yes"/>
      <point x="772" y="1250"/>
      <point x="858" y="1186"/>
      <point x="858" y="1058" type="curve" smooth="yes" name="hr03"/>
      <point x="858" y="980" type="line" smooth="yes"/>
      <point x="858" y="852"/>
      <point x="772" y="790"/>
      <point x="632" y="790" type="curve" smooth="yes"/>
    </contour>
    <contour>
      <point x="630" y="0" type="move" name="bottom"/>
    </contour>
    <contour>
      <point x="590" y="1396" type="move" name="top"/>
    </contour>
  </outline>
</glyph>
<glyph name="E" format="1">
  <unicode hex="0045"/>
  <advance width="1200" height="1560"/>
  <outline>
    <contour>
      <point x="1040" y="0" type="line" name="hr00"/>
      <point x="1040" y="146" type="line"/>
      <point x="348" y="146" type="line"/>
      <point x="348" y="634" type="line"/>
      <point x="1016" y="634" type="line"/>
      <point x="1016" y="780" type="line"/>
      <point x="348" y="780" type="line"/>
      <point x="348" y="1250" type="line"/>
      <point x="1040" y="1250" type="line"/>
      <point x="1040" y="1396" type="line"/>
      <point x="180" y="1396" type="line"/>
      <point x="180" y="0" type="line"/>
    </contour>
    <contour>
      <point x="610" y="0" type="move" name="bottom"/>
    </contour>
    <contour>
      <point x="1040" y="0" type="move" name="bottomright"/>
    </contour>
    <contour>
      <point x="610" y="1396" type="move" name="top"/>
    </contour>
  </outline>
</glyph>
<glyph name="F" format="1">
  <unicode hex="0046"/>
  <advance width="1200" height="1560"/>
  <outline>
    <contour>
      <point x="348" y="0" type="line" name="hr00"/>
      <point x="348" y="634" type="line"/>
      <point x="1000" y="634" type="line"/>
      <point x="1000" y="780" type="line"/>
      <point x="348" y="780" type="line"/>
      <point x="348" y="1250" type="line"/>
      <point x="1060" y="1250" type="line"/>
      <point x="1060" y="1396" type="line"/>
      <point x="180" y="1396" type="line"/>
      <point x="180" y="0" type="line"/>
    </contour>
    <contour>
      <point x="264" y="0" type="move" name="bottom"/>
    </contour>
    <contour>
      <point x="620" y="1396" type="move" name="top"/>
    </contour>
  </outline>
</glyph>
<glyph name="I" format="1">
  <unicode hex="0049"/>
  <advance width="1200" height="1560"/>
  <outline>
    <contour>
      <point x="1032" y="0" type="line" name="hr00"/>
      <point x="1032" y="134" type="line"/>
      <point x="684" y="134" type="line"/>
      <point x="684" y="1262" type="line"/>
      <point x="1032" y="1262" type="line"/>
      <point x="1032" y="1396" type="line"/>
      <point x="168" y="1396" type="line"/>
      <point x="168" y="1262" type="line"/>
      <point x="516" y="1262" type="line"/>
      <point x="516" y="134" type="line"/>
      <point x="168" y="134" type="line"/>
      <point x="168" y="0" type="line"/>
    </contour>
    <contour>
      <point x="600" y="0" type="move" name="bottom"/>
    </contour>
    <contour>
      <point x="1032" y="0" type="move" name="bottomright"/>
    </contour>
    <contour>
      <point x="600" y="1396" type="move" name="top"/>
    </contour>
  </outline>
</glyph>
<glyph name="J" format="1">
  <unicode hex="004A"/>
  <advance width="1200" height="1560"/>
  <outline>
    <contour>
      <point x="288" y="1396" type="line" name="hr00"/>
      <point x="288" y="1250" type="line"/>
      <point x="792" y="1250" type="line"/>
      <point x="792" y="392" type="line" smooth="yes"/>
      <point x="792" y="210"/>
      <point x="704" y="124"/>
      <point x="552" y="124" type="curve" smooth="yes"/>
      <point x="396" y="124"/>
      <point x="334" y="214"/>
      <point x="308" y="326" type="curve"/>
      <point x="148" y="292" type="line"/>
      <point x="190" y="92"/>
      <point x="336" y="-24"/>
      <point x="548" y="-24" type="curve" smooth="yes"/>
      <point x="790" y="-24"/>
      <point x="960" y="126"/>
      <point x="960" y="362" type="curve"/>
      <point x="960" y="1396" type="line"/>
    </contour>
    <contour>
      <point x="554" y="0" type="move" name="bottom"/>
    </contour>
    <contour>
      <point x="626" y="1396" type="move" name="top"/>
    </contour>
  </outline>
</glyph>
<glyph name="K" format="1">
  <unicode hex="004B"/>
  <advance width="1200" height="1560"/>
  <outline>
    <contour>
      <point x="960" y="0" type="line" name="hr00"/>
      <point x="1156" y="0" type="line"/>
      <point x="652" y="808" type="line"/>
      <point x="1142" y="1396" type="line"/>
      <point x="940" y="1396" type="line"/>
      <point x="528" y="900" type="line"/>
      <point x="344" y="668" type="line"/>
      <point x="338" y="668" type="line"/>
      <point x="338" y="1396" type="line"/>
      <point x="170" y="1396" type="line"/>
      <point x="170" y="0" type="line"/>
      <point x="338" y="0" type="line"/>
      <point x="338" y="448" type="line"/>
      <point x="538" y="684" type="line"/>
    </contour>
    <contour>
      <point x="644" y="0" type="move" name="bottom"/>
    </contour>
    <contour>
      <point x="626" y="1396" type="move" name="top"/>
    </contour>
  </outline>
</glyph>
<glyph name="L" format="1">
  <unicode hex="004C"/>
  <advance width="1200" height="1560"/>
  <outline>
    <contour>
      <point x="1070" y="0" type="line" name="hr00"/>
      <point x="1070" y="146" type="line"/>
      <point x="408" y="146" type="line"/>
      <point x="408" y="1396" type="line"/>
      <point x="240" y="1396" type="line"/>
      <point x="240" y="0" type="line"/>
    </contour>
    <contour>
      <point x="654" y="0" type="move" name="bottom"/>
    </contour>
    <contour>
      <point x="324" y="1396" type="move" name="top"/>
    </contour>
    <contour>
      <point x="580" y="1480" type="move" name="topright"/>
    </contour>
  </outline>
</glyph>
<glyph name="N" format="1">
  <unicode hex="004E"/>
  <advance width="1200" height="1560"/>
  <outline>
    <contour>
      <point x="802" y="0" type="line" name="hr00"/>
      <point x="1040" y="0" type="line"/>
      <point x="1040" y="1396" type="line"/>
      <point x="888" y="1396" type="line"/>
      <point x="888" y="226" type="line"/>
      <point x="874" y="226" type="line"/>
      <point x="398" y="1396" type="line"/>
      <point x="160" y="1396" type="line"/>
      <point x="160" y="0" type="line"/>
      <point x="312" y="0" type="line"/>
      <point x="312" y="1182" type="line"/>
      <point x="326" y="1182" type="line"/>
    </contour>
    <contour>
      <point x="600" y="0" type="move" name="bottom"/>
    </contour>
    <contour>
      <point x="600" y="1396" type="move" name="top"/>
    </contour>
  </outline>
</glyph>
<glyph name="T" format="1">
  <unicode hex="0054"/>
  <advance width="1200" height="1560"/>
  <outline>
    <contour>
      <point x="1150" y="1250" type="line" name="hr00"/>
      <point x="1150" y="1396" type="line"/>
      <point x="50" y="1396" type="line"/>
      <point x="50" y="1250" type="line"/>
      <point x="516" y="1250" type="line"/>
      <point x="516" y="0" type="line"/>
      <point x="684" y="0" type="line"/>
      <point x="684" y="1250" type="line"/>
    </contour>
    <contour>
      <point x="600" y="0" type="move" name="bottom"/>
    </contour>
    <contour>
      <point x="600" y="1396" type="move" name="top"/>
    </contour>
  </outline>
</glyph>
<glyph name="U" format="1">
  <unicode hex="0055"/>
  <advance width="1200" height="1560"/>
  <outline>
    <contour>
      <point x="160" y="1396" type="line" name="hr00"/>
      <point x="160" y="598" type="line" smooth="yes"/>
      <point x="160" y="184"/>
      <point x="220" y="-24"/>
      <point x="600" y="-24" type="curve" smooth="yes"/>
      <point x="980" y="-24"/>
      <point x="1040" y="184"/>
      <point x="1040" y="598" type="curve" smooth="yes"/>
      <point x="1040" y="1396" type="line"/>
      <point x="872" y="1396" type="line"/>
      <point x="872" y="558" type="line" smooth="yes"/>
      <point x="872" y="288"/>
      <point x="862" y="122"/>
      <point x="600" y="122" type="curve" smooth="yes"/>
      <point x="338" y="122"/>
      <point x="328" y="288"/>
      <point x="328" y="558" type="curve" smooth="yes"/>
      <point x="328" y="1396" type="line"/>
    </contour>
    <contour>
      <point x="600" y="0" type="move" name="bottom"/>
    </contour>
    <contour>
      <point x="788" y="0" type="move" name="bottomright"/>
    </contour>
    <contour>
      <point x="600" y="1396" type="move" name="top"/>
    </contour>
  </outline>
</glyph>
<glyph name="V" format="1">
  <unicode hex="0056"/>
  <advance width="1200" height="1560"/>
  <outline>
    <contour>
      <point x="714" y="0" type="line" name="hr00"/>
      <point x="1128" y="1396" type="line"/>
      <point x="956" y="1396" type="line"/>
      <point x="758" y="698" type="line"/>
      <point x="608" y="170" type="line"/>
      <point x="598" y="170" type="line"/>
      <point x="448" y="698" type="line"/>
      <point x="250" y="1396" type="line"/>
      <point x="72" y="1396" type="line"/>
      <point x="486" y="0" type="line"/>
    </contour>
    <contour>
      <point x="600" y="0" type="move" name="bottom"/>
    </contour>
    <contour>
      <point x="600" y="1396" type="move" name="top"/>
    </contour>
  </outline>
</glyph>
<glyph name="X" format="1">
  <unicode hex="0058"/>
  <advance width="1200" height="1560"/>
  <outline>
    <contour>
      <point x="704" y="714" type="line" name="hr00"/>
      <point x="1136" y="1396" type="line"/>
      <point x="952" y="1396" type="line"/>
      <point x="784" y="1126" type="line"/>
      <point x="612" y="844" type="line"/>
      <point x="604" y="844" type="line"/>
      <point x="430" y="1126" type="line"/>
      <point x="268" y="1396" type="line"/>
      <point x="78" y="1396" type="line"/>
      <point x="508" y="712" type="line"/>
      <point x="52" y="0" type="line"/>
      <point x="236" y="0" type="line"/>
      <point x="412" y="278" type="line"/>
      <point x="602" y="582" type="line"/>
      <point x="610" y="582" type="line"/>
      <point x="794" y="278" type="line"/>
      <point x="960" y="0" type="line"/>
      <point x="1150" y="0" type="line"/>
    </contour>
    <contour>
      <point x="600" y="0" type="move" name="bottom"/>
    </contour>
    <contour>
      <point x="600" y="1396" type="move" name="top"/>
    </contour>
  </outline>
</glyph>
<glyph name="Y" format="1">
  <unicode hex="0059"/>
  <advance width="1200" height="1560"/>
  <outline>
    <contour>
      <point x="684" y="0" type="line" name="hr00"/>
      <point x="684" y="548" type="line"/>
      <point x="1166" y="1396" type="line"/>
      <point x="978" y="1396" type="line"/>
      <point x="778" y="1032" type="line"/>
      <point x="604" y="714" type="line"/>
      <point x="596" y="714" type="line"/>
      <point x="426" y="1032" type="line"/>
      <point x="226" y="1396" type="line"/>
      <point x="34" y="1396" type="line"/>
      <point x="516" y="548" type="line"/>
      <point x="516" y="0" type="line"/>
    </contour>
    <contour>
      <point x="600" y="0" type="move" name="bottom"/>
    </contour>
    <contour>
      <point x="600" y="1396" type="move" name="top"/>
    </contour>
  </outline>
</glyph>
<glyph name="backslash" format="1">
  <unicode hex="005C"/>
  <advance width="1200" height="1560"/>
  <outline>
    <contour>
      <point x="1020" y="-276" type="line" name="hr00"/>
      <point x="324" y="1520" type="line"/>
      <point x="180" y="1520" type="line"/>
      <point x="876" y="-276" type="line"/>
    </contour>
  </outline>
</glyph>
<glyph name="grave" format="1">
  <unicode hex="0060"/>
  <advance width="1200" height="1560"/>
  <outline>
    <contour>
      <point x="586" y="1170" type="line" name="hr00"/>
      <point x="690" y="1218" type="line"/>
      <point x="520" y="1558" type="line"/>
      <point x="374" y="1488" type="line"/>
    </contour>
    <contour>
      <point x="600" y="1032" type="move" name="_top"/>
    </contour>
  </outline>
</glyph>
<glyph name="f" format="1">
  <unicode hex="0066"/>
  <advance width="1200" height="1560"/>
  <outline>
    <contour>
      <point x="166" y="0" type="line" name="hr00"/>
      <point x="1042" y="0" type="line"/>
      <point x="1042" y="136" type="line"/>
      <point x="674" y="136" type="line"/>
      <point x="674" y="896" type="line"/>
      <point x="1088" y="896" type="line"/>
      <point x="1088" y="1032" type="line"/>
      <point x="674" y="1032" type="line"/>
      <point x="674" y="1344" type="line"/>
      <point x="1088" y="1344" type="line"/>
      <point x="1088" y="1480" type="line"/>
      <point x="742" y="1480" type="line" smooth="yes"/>
      <point x="586" y="1480"/>
      <point x="514" y="1382"/>
      <point x="514" y="1244" type="curve" smooth="yes"/>
      <point x="514" y="1032" type="line"/>
      <point x="146" y="1032" type="line"/>
      <point x="146" y="896" type="line"/>
      <point x="514" y="896" type="line"/>
      <point x="514" y="136" type="line"/>
      <point x="166" y="136" type="line"/>
    </contour>
    <contour>
      <point x="616" y="0" type="move" name="bottom"/>
    </contour>
  </outline>
</glyph>
<glyph name="l" format="1">
  <unicode hex="006C"/>
  <advance width="1200" height="1560"/>
  <outline>
    <contour>
      <point x="160" y="0" type="line" name="hr00"/>
      <point x="1040" y="0" type="line"/>
      <point x="1040" y="136" type="line"/>
      <point x="680" y="136" type="line"/>
      <point x="680" y="1480" type="line"/>
      <point x="160" y="1480" type="line"/>
      <point x="160" y="1344" type="line"/>
      <point x="520" y="1344" type="line"/>
      <point x="520" y="136" type="line"/>
      <point x="160" y="136" type="line"/>
    </contour>
    <contour>
      <point x="600" y="0" type="move" name="bottom"/>
    </contour>
    <contour>
      <point x="600" y="1396" type="move" name="top"/>
    </contour>
    <contour>
      <point x="852" y="1480" type="move" name="topright"/>
    </contour>
  </outline>
</glyph>
<glyph name="y" format="1">
  <unicode hex="0079"/>
  <advance width="1200" height="1560"/>
  <outline>
    <contour>
      <point x="760" y="600" type="line" name="hr00"/>
      <point x="606" y="208" type="line"/>
      <point x="598" y="208" type="line"/>
      <point x="444" y="600" type="line"/>
      <point x="270" y="1032" type="line"/>
      <point x="106" y="1032" type="line"/>
      <point x="522" y="20" type="line"/>
      <point x="406" y="-264" type="line"/>
      <point x="166" y="-264" type="line"/>
      <point x="166" y="-400" type="line"/>
      <point x="318" y="-400" type="line" smooth="yes"/>
      <point x="474" y="-400"/>
      <point x="534" y="-344"/>
      <point x="582" y="-226" type="curve" smooth="yes"/>
      <point x="1094" y="1032" type="line"/>
      <point x="934" y="1032" type="line"/>
    </contour>
    <contour>
      <point x="920" y="0" type="move" name="bottom"/>
    </contour>
    <contour>
      <point x="600" y="1032" type="move" name="top"/>
    </contour>
  </outline>
</glyph>
<glyph name="braceright" format="1">
  <unicode hex="007D"/>
  <advance width="1200" height="1560"/>
  <outline>
    <contour>
      <point x="210" y="1520" type="line" name="hr00"/>
      <point x="210" y="1396" type="line"/>
      <point x="592" y="1396" type="line"/>
      <point x="592" y="1242" type="line" smooth="yes"/>
      <point x="592" y="1132"/>
      <point x="554" y="1086"/>
      <point x="512" y="1030" type="curve" smooth="yes"/>
      <point x="468" y="972"/>
      <point x="418" y="912"/>
      <point x="418" y="828" type="curve" smooth="yes"/>
      <point x="418" y="718"/>
      <point x="504" y="644"/>
      <point x="638" y="626" type="curve"/>
      <point x="638" y="618" type="line"/>
      <point x="504" y="600"/>
      <point x="418" y="526"/>
      <point x="418" y="416" type="curve" smooth="yes"/>
      <point x="418" y="332"/>
      <point x="468" y="272"/>
      <point x="512" y="214" type="curve" smooth="yes"/>
      <point x="554" y="158"/>
      <point x="592" y="112"/>
      <point x="592" y="2" type="curve" smooth="yes"/>
      <point x="592" y="-152" type="line"/>
      <point x="210" y="-152" type="line"/>
      <point x="210" y="-276" type="line"/>
      <point x="562" y="-276" type="line" smooth="yes"/>
      <point x="672" y="-276"/>
      <point x="730" y="-204"/>
      <point x="730" y="-112" type="curve" smooth="yes"/>
      <point x="730" y="14" type="line" smooth="yes"/>
      <point x="730" y="158"/>
      <point x="666" y="224"/>
      <point x="618" y="284" type="curve" smooth="yes"/>
      <point x="574" y="338"/>
      <point x="558" y="372"/>
      <point x="558" y="414" type="curve" smooth="yes"/>
      <point x="558" y="514"/>
      <point x="654" y="560"/>
      <point x="834" y="560" type="curve" smooth="yes"/>
      <point x="990" y="560" type="line"/>
      <point x="990" y="684" type="line"/>
      <point x="834" y="684" type="line" smooth="yes"/>
      <point x="654" y="684"/>
      <point x="558" y="730"/>
      <point x="558" y="830" type="curve" smooth="yes"/>
      <point x="558" y="872"/>
      <point x="574" y="906"/>
      <point x="618" y="960" type="curve" smooth="yes"/>
      <point x="666" y="1020"/>
      <point x="730" y="1086"/>
      <point x="730" y="1230" type="curve" smooth="yes"/>
      <point x="730" y="1356" type="line" smooth="yes"/>
      <point x="730" y="1448"/>
      <point x="672" y="1520"/>
      <point x="562" y="1520" type="curve" smooth="yes"/>
    </contour>
  </outline>
</glyph>
<glyph name="macron" format="1">
  <unicode hex="00AF"/>
  <advance width="1200" height="1560"/>
  <outline>
    <contour>
      <point x="320" y="1274" type="line" name="hr00"/>
      <point x="880" y="1274" type="line"/>
      <point x="880" y="1410" type="line"/>
      <point x="320" y="1410" type="line"/>
    </contour>
    <contour>
      <point x="600" y="1032" type="move" name="_top"/>
    </contour>
  </outline>
</glyph>
<glyph name="paragraph" format="1">
  <unicode hex="00B6"/>
  <advance width="1200" height="1560"/>
  <outline>
    <contour>
      <point x="540" y="-298" type="line" name="hr00"/>
      <point x="684" y="-298" type="line"/>
      <point x="684" y="1268" type="line"/>
      <point x="864" y="1268" type="line"/>
      <point x="864" y="-298" type="line"/>
      <point x="1008" y="-298" type="line"/>
      <point x="1008" y="1396" type="line"/>
      <point x="540" y="1396" type="line" smooth="yes"/>
      <point x="292" y="1396"/>
      <point x="90" y="1206"/>
      <point x="90" y="944" type="curve" smooth="yes"/>
      <point x="90" y="682"/>
      <point x="292" y="492"/>
      <point x="540" y="492" type="curve"/>
    </contour>
  </outline>
</glyph>
<glyph name="multiply" format="1">
  <unicode hex="00D7"/>
  <advance width="1200" height="1560"/>
  <outline>
    <contour>
      <point x="926" y="186" type="line" name="hr00"/>
      <point x="1024" y="284" type="line"/>
      <point x="698" y="610" type="line"/>
      <point x="1024" y="936" type="line"/>
      <point x="926" y="1034" type="line"/>
      <point x="600" y="708" type="line"/>
      <point x="274" y="1034" type="line"/>
      <point x="176" y="936" type="line"/>
      <point x="502" y="610" type="line"/>
      <point x="176" y="284" type="line"/>
      <point x="274" y="186" type="line"/>
      <point x="600" y="512" type="line"/>
    </contour>
  </outline>
</glyph>
<glyph name="Oslash" format="1">
  <unicode hex="00D8"/>
  <advance width="1200" height="1560"/>
  <outline>
    <contour>
      <point x="600" y="-24" type="curve" smooth="yes" name="hr00"/>
      <point x="940" y="-24"/>
      <point x="1088" y="242"/>
      <point x="1088" y="698" type="curve" smooth="yes"/>
      <point x="1088" y="912"/>
      <point x="1056" y="1086"/>
      <point x="986" y="1208" type="curve"/>
      <point x="1106" y="1412" type="line"/>
      <point x="986" y="1484" type="line"/>
      <point x="892" y="1324" type="line"/>
      <point x="818" y="1388"/>
      <point x="720" y="1420"/>
      <point x="600" y="1420" type="curve" smooth="yes"/>
      <point x="260" y="1420"/>
      <point x="112" y="1154"/>
      <point x="112" y="698" type="curve" smooth="yes"/>
      <point x="112" y="484"/>
      <point x="144" y="310"/>
      <point x="214" y="188" type="curve"/>
      <point x="94" y="-16" type="line"/>
      <point x="214" y="-88" type="line"/>
      <point x="308" y="72" type="line"/>
      <point x="382" y="8"/>
      <point x="480" y="-24"/>
    </contour>
    <contour>
      <point x="290" y="584" type="curve"/>
      <point x="290" y="812" type="line" smooth="yes"/>
      <point x="290" y="1092"/>
      <point x="378" y="1274"/>
      <point x="600" y="1274" type="curve" smooth="yes"/>
      <point x="694" y="1274"/>
      <point x="764" y="1240"/>
      <point x="814" y="1182" type="curve"/>
      <point x="318" y="348" type="line"/>
      <point x="298" y="414"/>
      <point x="290" y="494"/>
    </contour>
    <contour>
      <point x="600" y="122" type="curve" smooth="yes"/>
      <point x="506" y="122"/>
      <point x="436" y="156"/>
      <point x="386" y="214" type="curve"/>
      <point x="882" y="1048" type="line"/>
      <point x="902" y="982"/>
      <point x="910" y="902"/>
      <point x="910" y="812" type="curve"/>
      <point x="910" y="584" type="line" smooth="yes"/>
      <point x="910" y="304"/>
      <point x="822" y="122"/>
    </contour>
    <contour>
      <point x="600" y="1396" type="move" name="top"/>
    </contour>
  </outline>
</glyph>
<glyph name="Thorn" format="1">
  <unicode hex="00DE"/>
  <advance width="1200" height="1560"/>
  <outline>
    <contour>
      <point x="348" y="0" type="line" name="hr00"/>
      <point x="348" y="310" type="line"/>
      <point x="688" y="310" type="line" smooth="yes"/>
      <point x="946" y="310"/>
      <point x="1086" y="464"/>
      <point x="1086" y="708" type="curve" smooth="yes"/>
      <point x="1086" y="952"/>
      <point x="946" y="1106"/>
      <point x="688" y="1106" type="curve" smooth="yes"/>
      <point x="348" y="1106" type="line"/>
      <point x="348" y="1396" type="line"/>
      <point x="180" y="1396" type="line"/>
      <point x="180" y="0" type="line"/>
    </contour>
    <contour>
      <point x="348" y="960" type="line"/>
      <point x="688" y="960" type="line" smooth="yes"/>
      <point x="828" y="960"/>
      <point x="912" y="888"/>
      <point x="912" y="760" type="curve" smooth="yes"/>
      <point x="912" y="656" type="line" smooth="yes"/>
      <point x="912" y="528"/>
      <point x="828" y="456"/>
      <point x="688" y="456" type="curve" smooth="yes"/>
      <point x="348" y="456" type="line"/>
    </contour>
  </outline>
</glyph>
<glyph name="Eogonek" format="1">
  <unicode hex="0118"/>
  <advance width="1200" height="1560"/>
  <outline>
    <contour>
      <point x="180" y="0" type="line" name="hr00"/>
      <point x="906" y="0" type="line"/>
      <point x="908" y="-6" type="line"/>
      <point x="758" y="-78"/>
      <point x="678" y="-158"/>
      <point x="678" y="-254" type="curve" smooth="yes"/>
      <point x="678" y="-360"/>
      <point x="774" y="-414"/>
      <point x="896" y="-414" type="curve" smooth="yes"/>
      <point x="996" y="-414"/>
      <point x="1056" y="-376"/>
      <point x="1082" y="-332" type="curve"/>
      <point x="1002" y="-250" type="line"/>
      <point x="976" y="-282"/>
      <point x="942" y="-302"/>
      <point x="898" y="-302" type="curve" smooth="yes"/>
      <point x="856" y="-302"/>
      <point x="814" y="-284"/>
      <point x="814" y="-228" type="curve" smooth="yes"/>
      <point x="814" y="-188"/>
      <point x="834" y="-130"/>
      <point x="1040" y="0" type="curve"/>
      <point x="1040" y="146" type="line"/>
      <point x="348" y="146" type="line"/>
      <point x="348" y="634" type="line"/>
      <point x="1016" y="634" type="line"/>
      <point x="1016" y="780" type="line"/>
      <point x="348" y="780" type="line"/>
      <point x="348" y="1250" type="line"/>
      <point x="1040" y="1250" type="line"/>
      <point x="1040" y="1396" type="line"/>
      <point x="180" y="1396" type="line"/>
    </contour>
  </outline>
</glyph>
<glyph name="dotlessi" format="1">
  <unicode hex="0131"/>
  <advance width="1200" height="1560"/>
  <outline>
    <contour>
      <point x="212" y="0" type="line" name="hr00"/>
      <point x="1092" y="0" type="line"/>
      <point x="1092" y="136" type="line"/>
      <point x="744" y="136" type="line"/>
      <point x="744" y="1032" type="line"/>
      <point x="212" y="1032" type="line"/>
      <point x="212" y="896" type="line"/>
      <point x="584" y="896" type="line"/>
      <point x="584" y="136" type="line"/>
      <point x="212" y="136" type="line"/>
    </contour>
    <contour>
      <point x="664" y="0" type="move" name="bottom"/>
    </contour>
    <contour>
      <point x="1092" y="0" type="move" name="bottomright"/>
    </contour>
    <contour>
      <point x="664" y="1032" type="move" name="top"/>
    </contour>
  </outline>
</glyph>
<glyph name="IJ" format="1">
  <unicode hex="0132"/>
  <advance width="1200" height="1560"/>
  <outline>
    <contour>
      <point x="852" y="1396" type="line" name="hr00"/>
      <point x="852" y="412" type="line" smooth="yes"/>
      <point x="852" y="216"/>
      <point x="756" y="124"/>
      <point x="592" y="124" type="curve" smooth="yes"/>
      <point x="418" y="124"/>
      <point x="362" y="228"/>
      <point x="338" y="332" type="curve"/>
      <point x="170" y="290" type="line"/>
      <point x="212" y="90"/>
      <point x="368" y="-24"/>
      <point x="586" y="-24" type="curve" smooth="yes"/>
      <point x="842" y="-24"/>
      <point x="1020" y="134"/>
      <point x="1020" y="382" type="curve" smooth="yes"/>
      <point x="1020" y="1396" type="line"/>
    </contour>
    <contour>
      <point x="180" y="580" type="line"/>
      <point x="348" y="580" type="line"/>
      <point x="348" y="1396" type="line"/>
      <point x="180" y="1396" type="line"/>
    </contour>
  </outline>
</glyph>
<glyph name="kgreenlandic" format="1">
  <unicode hex="0138"/>
  <advance width="1200" height="1560"/>
  <outline>
    <contour>
      <point x="958" y="0" type="line" name="hr00"/>
      <point x="1156" y="0" type="line"/>
      <point x="678" y="612" type="line"/>
      <point x="1106" y="1032" type="line"/>
      <point x="910" y="1032" type="line"/>
      <point x="570" y="696" type="line"/>
      <point x="380" y="510" type="line"/>
      <point x="372" y="510" type="line"/>
      <point x="372" y="1032" type="line"/>
      <point x="212" y="1032" type="line"/>
      <point x="212" y="0" type="line"/>
      <point x="372" y="0" type="line"/>
      <point x="372" y="330" type="line"/>
      <point x="566" y="506" type="line"/>
    </contour>
  </outline>
</glyph>
<glyph name="Scedilla" format="1">
  <unicode hex="015E"/>
  <advance width="1200" height="1560"/>
  <outline>
    <contour>
      <point x="618" y="-414" type="curve" smooth="yes" name="hr00"/>
      <point x="736" y="-414"/>
      <point x="840" y="-362"/>
      <point x="840" y="-248" type="curve" smooth="yes"/>
      <point x="840" y="-162"/>
      <point x="782" y="-116"/>
      <point x="704" y="-116" type="curve" smooth="yes"/>
      <point x="680" y="-116"/>
      <point x="652" y="-120"/>
      <point x="626" y="-128" type="curve"/>
      <point x="620" y="-122" type="line"/>
      <point x="640" y="-22" type="line"/>
      <point x="922" y="-8"/>
      <point x="1084" y="144"/>
      <point x="1084" y="390" type="curve" smooth="yes"/>
      <point x="1084" y="572"/>
      <point x="994" y="724"/>
      <point x="720" y="772" type="curve" smooth="yes"/>
      <point x="570" y="798" type="line" smooth="yes"/>
      <point x="372" y="832"/>
      <point x="308" y="912"/>
      <point x="308" y="1036" type="curve" smooth="yes"/>
      <point x="308" y="1194"/>
      <point x="414" y="1276"/>
      <point x="602" y="1276" type="curve" smooth="yes"/>
      <point x="776" y="1276"/>
      <point x="876" y="1206"/>
      <point x="954" y="1104" type="curve"/>
      <point x="1072" y="1206" type="line"/>
      <point x="978" y="1340"/>
      <point x="826" y="1420"/>
      <point x="604" y="1420" type="curve" smooth="yes"/>
      <point x="320" y="1420"/>
      <point x="138" y="1288"/>
      <point x="138" y="1032" type="curve" smooth="yes"/>
      <point x="138" y="856"/>
      <point x="224" y="698"/>
      <point x="498" y="652" type="curve" smooth="yes"/>
      <point x="654" y="626" type="line" smooth="yes"/>
      <point x="844" y="594"/>
      <point x="914" y="522"/>
      <point x="914" y="386" type="curve" smooth="yes"/>
      <point x="914" y="218"/>
      <point x="804" y="120"/>
      <point x="602" y="120" type="curve" smooth="yes"/>
      <point x="434" y="120"/>
      <point x="320" y="186"/>
      <point x="212" y="322" type="curve"/>
      <point x="90" y="222" type="line"/>
      <point x="186" y="88"/>
      <point x="322" y="-8"/>
      <point x="540" y="-22" type="curve"/>
      <point x="514" y="-154" type="line"/>
      <point x="570" y="-162" type="line" smooth="yes"/>
      <point x="682" y="-178"/>
      <point x="706" y="-208"/>
      <point x="706" y="-244" type="curve" smooth="yes"/>
      <point x="706" y="-286"/>
      <point x="668" y="-306"/>
      <point x="618" y="-306" type="curve" smooth="yes"/>
      <point x="560" y="-306"/>
      <point x="520" y="-280"/>
      <point x="496" y="-250" type="curve"/>
      <point x="420" y="-332" type="line"/>
      <point x="448" y="-370"/>
      <point x="510" y="-414"/>
    </contour>
  </outline>
</glyph>
<glyph name="uogonek" format="1">
  <unicode hex="0173"/>
  <advance width="1200" height="1560"/>
  <outline>
    <contour>
      <point x="1004" y="1032" type="line"/>
      <point x="844" y="1032" type="line"/>
      <point x="844" y="316" type="line" smooth="yes"/>
      <point x="844" y="180"/>
      <point x="716" y="118"/>
      <point x="588" y="118" type="curve" smooth="yes"/>
      <point x="430" y="118"/>
      <point x="344" y="210"/>
      <point x="344" y="398" type="curve" smooth="yes"/>
      <point x="344" y="1032" type="line"/>
      <point x="184" y="1032" type="line"/>
      <point x="184" y="370" type="line" smooth="yes"/>
      <point x="184" y="120"/>
      <point x="326" y="-24"/>
      <point x="542" y="-24" type="curve" smooth="yes"/>
      <point x="712" y="-24"/>
      <point x="792" y="66"/>
      <point x="836" y="168" type="curve"/>
      <point x="844" y="168" type="line"/>
      <point x="844" y="0" type="line" name="hr01"/>
      <point x="870" y="0" type="line"/>
      <point x="872" y="-6" type="line"/>
      <point x="722" y="-78"/>
      <point x="642" y="-158"/>
      <point x="642" y="-254" type="curve" smooth="yes"/>
      <point x="642" y="-360"/>
      <point x="738" y="-414"/>
      <point x="860" y="-414" type="curve" smooth="yes"/>
      <point x="960" y="-414"/>
      <point x="1020" y="-376"/>
      <point x="1046" y="-332" type="curve"/>
      <point x="966" y="-250" type="line"/>
      <point x="940" y="-282"/>
      <point x="906" y="-302"/>
      <point x="862" y="-302" type="curve" smooth="yes"/>
      <point x="820" y="-302"/>
      <point x="778" y="-284"/>
      <point x="778" y="-228" type="curve" smooth="yes"/>
      <point x="778" y="-188"/>
      <point x="798" y="-130"/>
      <point x="1004" y="0" type="curve"/>
    </contour>
  </outline>
</glyph>
<glyph name="florin" format="1">
  <unicode hex="0192"/>
  <advance width="1200" height="1560"/>
  <outline>
    <contour>
      <point x="-86" y="-400" type="line" name="hr00"/>
      <point x="278" y="-400" type="line" smooth="yes"/>
      <point x="434" y="-400"/>
      <point x="510" y="-312"/>
      <point x="534" y="-174" type="curve" smooth="yes"/>
      <point x="686" y="740" type="line"/>
      <point x="1056" y="740" type="line"/>
      <point x="1078" y="876" type="line"/>
      <point x="708" y="876" type="line"/>
      <point x="772" y="1258" type="line"/>
      <point x="1196" y="1258" type="line"/>
      <point x="1220" y="1396" type="line"/>
      <point x="854" y="1396" type="line" smooth="yes"/>
      <point x="698" y="1396"/>
      <point x="622" y="1308"/>
      <point x="598" y="1170" type="curve" smooth="yes"/>
      <point x="550" y="876" type="line"/>
      <point x="178" y="876" type="line"/>
      <point x="156" y="740" type="line"/>
      <point x="526" y="740" type="line"/>
      <point x="360" y="-264" type="line"/>
      <point x="-62" y="-264" type="line"/>
    </contour>
  </outline>
</glyph>
<glyph name="caronslovak" format="1">
  <unicode hex="02BC"/>
  <advance width="1200" height="1560"/>
  <outline>
    <contour>
      <point x="600" y="1480" type="line" name="hr00"/>
      <point x="394" y="1480" type="line"/>
      <point x="380" y="1102" type="line"/>
      <point x="502" y="1102" type="line"/>
    </contour>
    <contour>
      <point x="380" y="1480" type="move" name="_topright"/>
    </contour>
  </outline>
</glyph>
<glyph name="hungarumlaut" format="1">
  <unicode hex="02DD"/>
  <advance width="1200" height="1560"/>
  <outline>
    <contour>
      <point x="666" y="1490" type="line" name="hr00"/>
      <point x="528" y="1556" type="line"/>
      <point x="358" y="1216" type="line"/>
      <point x="454" y="1172" type="line"/>
    </contour>
    <contour>
      <point x="986" y="1490" type="line"/>
      <point x="848" y="1556" type="line"/>
      <point x="678" y="1216" type="line"/>
      <point x="774" y="1172" type="line"/>
    </contour>
    <contour>
      <point x="600" y="1032" type="move" name="_top"/>
    </contour>
  </outline>
</glyph>
<glyph name="dotbelowcomb" format="1">
  <unicode hex="0323"/>
  <advance width="0" height="1560"/>
  <outline>
    <contour>
      <point x="0" y="-344" type="curve" smooth="yes" name="hr00"/>
      <point x="82" y="-344"/>
      <point x="114" y="-304"/>
      <point x="114" y="-252" type="curve" smooth="yes"/>
      <point x="114" y="-224" type="line" smooth="yes"/>
      <point x="114" y="-172"/>
      <point x="82" y="-132"/>
      <point x="0" y="-132" type="curve" smooth="yes"/>
      <point x="-82" y="-132"/>
      <point x="-114" y="-172"/>
      <point x="-114" y="-224" type="curve" smooth="yes"/>
      <point x="-114" y="-252" type="line" smooth="yes"/>
      <point x="-114" y="-304"/>
      <point x="-82" y="-344"/>
    </contour>
    <contour>
      <point x="0" y="0" type="move" name="_bottom"/>
    </contour>
  </outline>
</glyph>
<glyph name="pi" format="1">
  <unicode hex="03C0"/>
  <advance width="1200" height="1560"/>
  <outline>
    <contour>
      <point x="224" y="0" type="line" name="hr00"/>
      <point x="384" y="0" type="line"/>
      <point x="384" y="896" type="line"/>
      <point x="786" y="896" type="line"/>
      <point x="786" y="236" type="line" smooth="yes"/>
      <point x="786" y="98"/>
      <point x="858" y="0"/>
      <point x="1014" y="0" type="curve" smooth="yes"/>
      <point x="1130" y="0" type="line"/>
      <point x="1130" y="136" type="line"/>
      <point x="946" y="136" type="line"/>
      <point x="946" y="896" type="line"/>
      <point x="1130" y="896" type="line"/>
      <point x="1130" y="1032" type="line"/>
      <point x="40" y="1032" type="line"/>
      <point x="40" y="896" type="line"/>
      <point x="224" y="896" type="line"/>
    </contour>
  </outline>
</glyph>
<glyph name="uni040A" format="1">
  <unicode hex="040A"/>
  <advance width="1200" height="1560"/>
  <outline>
    <contour>
      <point x="570" y="0" type="line" name="hr00"/>
      <point x="806" y="0" type="line" smooth="yes"/>
      <point x="1056" y="0"/>
      <point x="1196" y="150"/>
      <point x="1196" y="418" type="curve" smooth="yes"/>
      <point x="1196" y="686"/>
      <point x="1056" y="836"/>
      <point x="806" y="836" type="curve" smooth="yes"/>
      <point x="734" y="836" type="line"/>
      <point x="734" y="1396" type="line"/>
      <point x="570" y="1396" type="line"/>
      <point x="570" y="780" type="line"/>
      <point x="260" y="780" type="line"/>
      <point x="260" y="1396" type="line"/>
      <point x="96" y="1396" type="line"/>
      <point x="96" y="0" type="line"/>
      <point x="260" y="0" type="line"/>
      <point x="260" y="634" type="line"/>
      <point x="570" y="634" type="line"/>
    </contour>
    <contour>
      <point x="734" y="146" type="line"/>
      <point x="734" y="690" type="line"/>
      <point x="806" y="690" type="line" smooth="yes"/>
      <point x="938" y="690"/>
      <point x="1022" y="620"/>
      <point x="1022" y="470" type="curve" smooth="yes"/>
      <point x="1022" y="366" type="line" smooth="yes"/>
      <point x="1022" y="216"/>
      <point x="938" y="146"/>
      <point x="806" y="146" type="curve" smooth="yes"/>
    </contour>
  </outline>
</glyph>
<glyph name="uni040F" format="1">
  <unicode hex="040F"/>
  <advance width="1200" height="1560"/>
  <outline>
    <contour>
      <point x="524" y="-300" type="line" name="hr00"/>
      <point x="678" y="-300" type="line"/>
      <point x="678" y="0" type="line"/>
      <point x="1034" y="0" type="line"/>
      <point x="1034" y="1396" type="line"/>
      <point x="866" y="1396" type="line"/>
      <point x="866" y="146" type="line"/>
      <point x="334" y="146" type="line"/>
      <point x="334" y="1396" type="line"/>
      <point x="166" y="1396" type="line"/>
      <point x="166" y="0" type="line"/>
      <point x="524" y="0" type="line"/>
    </contour>
  </outline>
</glyph>
<glyph name="uni0411" format="1">
  <unicode hex="0411"/>
  <advance width="1200" height="1560"/>
  <outline>
    <contour>
      <point x="170" y="0" type="line" name="hr00"/>
      <point x="682" y="0" type="line" smooth="yes"/>
      <point x="932" y="0"/>
      <point x="1072" y="150"/>
      <point x="1072" y="418" type="curve" smooth="yes"/>
      <point x="1072" y="686"/>
      <point x="932" y="836"/>
      <point x="682" y="836" type="curve" smooth="yes"/>
      <point x="338" y="836" type="line"/>
      <point x="338" y="1250" type="line"/>
      <point x="958" y="1250" type="line"/>
      <point x="958" y="1396" type="line"/>
      <point x="170" y="1396" type="line"/>
    </contour>
    <contour>
      <point x="338" y="146" type="line"/>
      <point x="338" y="690" type="line"/>
      <point x="678" y="690" type="line" smooth="yes"/>
      <point x="810" y="690"/>
      <point x="894" y="620"/>
      <point x="894" y="470" type="curve" smooth="yes"/>
      <point x="894" y="366" type="line" smooth="yes"/>
      <point x="894" y="216"/>
      <point x="810" y="146"/>
      <point x="678" y="146" type="curve" smooth="yes"/>
    </contour>
  </outline>
</glyph>
<glyph name="uni0413" format="1">
  <unicode hex="0413"/>
  <advance width="1200" height="1560"/>
  <outline>
    <contour>
      <point x="264" y="0" type="line" name="hr00"/>
      <point x="432" y="0" type="line"/>
      <point x="432" y="1250" type="line"/>
      <point x="1046" y="1250" type="line"/>
      <point x="1046" y="1396" type="line"/>
      <point x="264" y="1396" type="line"/>
    </contour>
    <contour>
      <point x="654" y="1396" type="move" name="top"/>
    </contour>
  </outline>
</glyph>
<glyph name="uni0416" format="1">
  <unicode hex="0416"/>
  <advance width="1200" height="1560"/>
  <outline>
    <contour>
      <point x="518" y="0" type="line" name="hr00"/>
      <point x="682" y="0" type="line"/>
      <point x="682" y="636" type="line"/>
      <point x="820" y="636" type="line"/>
      <point x="1022" y="0" type="line"/>
      <point x="1196" y="0" type="line"/>
      <point x="1030" y="530" type="line" smooth="yes"/>
      <point x="990" y="658"/>
      <point x="946" y="692"/>
      <point x="886" y="704" type="curve"/>
      <point x="886" y="714" type="line"/>
      <point x="942" y="726"/>
      <point x="980" y="764"/>
      <point x="1014" y="880" type="curve" smooth="yes"/>
      <point x="1164" y="1396" type="line"/>
      <point x="1002" y="1396" type="line"/>
      <point x="820" y="780" type="line"/>
      <point x="682" y="780" type="line"/>
      <point x="682" y="1396" type="line"/>
      <point x="518" y="1396" type="line"/>
      <point x="518" y="780" type="line"/>
      <point x="380" y="780" type="line"/>
      <point x="200" y="1396" type="line"/>
      <point x="36" y="1396" type="line"/>
      <point x="184" y="878" type="line" smooth="yes"/>
      <point x="216" y="764"/>
      <point x="258" y="726"/>
      <point x="314" y="714" type="curve"/>
      <point x="314" y="704" type="line"/>
      <point x="254" y="692"/>
      <point x="214" y="660"/>
      <point x="172" y="530" type="curve" smooth="yes"/>
      <point x="4" y="0" type="line"/>
      <point x="176" y="0" type="line"/>
      <point x="380" y="636" type="line"/>
      <point x="518" y="636" type="line"/>
    </contour>
    <contour>
      <point x="600" y="1396" type="move" name="top"/>
    </contour>
  </outline>
</glyph>
<glyph name="uni0418" format="1">
  <unicode hex="0418"/>
  <advance width="1200" height="1560"/>
  <outline>
    <contour>
      <point x="160" y="0" type="line" name="hr00"/>
      <point x="320" y="0" type="line"/>
      <point x="890" y="1108" type="line"/>
      <point x="900" y="1108" type="line"/>
      <point x="872" y="704" type="line"/>
      <point x="872" y="0" type="line"/>
      <point x="1040" y="0" type="line"/>
      <point x="1040" y="1396" type="line"/>
      <point x="880" y="1396" type="line"/>
      <point x="310" y="288" type="line"/>
      <point x="300" y="288" type="line"/>
      <point x="328" y="692" type="line"/>
      <point x="328" y="1396" type="line"/>
      <point x="160" y="1396" type="line"/>
    </contour>
    <contour>
      <point x="600" y="1396" type="move" name="top"/>
    </contour>
  </outline>
</glyph>
<glyph name="uni042F" format="1">
  <unicode hex="042F"/>
  <advance width="1200" height="1560"/>
  <outline>
    <contour>
      <point x="78" y="0" type="line" name="hr00"/>
      <point x="204" y="0" type="line" smooth="yes"/>
      <point x="280" y="0"/>
      <point x="336" y="34"/>
      <point x="388" y="142" type="curve" smooth="yes"/>
      <point x="608" y="600" type="line"/>
      <point x="860" y="600" type="line"/>
      <point x="860" y="0" type="line"/>
      <point x="1028" y="0" type="line"/>
      <point x="1028" y="1396" type="line"/>
      <point x="538" y="1396" type="line" smooth="yes"/>
      <point x="288" y="1396"/>
      <point x="148" y="1242"/>
      <point x="148" y="1000" type="curve" smooth="yes"/>
      <point x="148" y="780"/>
      <point x="268" y="638"/>
      <point x="512" y="626" type="curve"/>
      <point x="512" y="616" type="line"/>
      <point x="448" y="604"/>
      <point x="410" y="572"/>
      <point x="370" y="488" type="curve" smooth="yes"/>
      <point x="206" y="146" type="line"/>
      <point x="78" y="146" type="line"/>
    </contour>
    <contour>
      <point x="860" y="744" type="line"/>
      <point x="542" y="744" type="line" smooth="yes"/>
      <point x="410" y="744"/>
      <point x="326" y="814"/>
      <point x="326" y="964" type="curve" smooth="yes"/>
      <point x="326" y="1030" type="line" smooth="yes"/>
      <point x="326" y="1180"/>
      <point x="410" y="1250"/>
      <point x="542" y="1250" type="curve" smooth="yes"/>
      <point x="860" y="1250" type="line"/>
    </contour>
  </outline>
</glyph>
<glyph name="uni0437" format="1">
  <unicode hex="0437"/>
  <advance width="1200" height="1560"/>
  <outline>
    <contour>
      <point x="558" y="-24" type="curve" smooth="yes" name="hr00"/>
      <point x="838" y="-24"/>
      <point x="1000" y="102"/>
      <point x="1000" y="300" type="curve" smooth="yes"/>
      <point x="1000" y="430"/>
      <point x="926" y="520"/>
      <point x="788" y="540" type="curve"/>
      <point x="788" y="548" type="line"/>
      <point x="908" y="578"/>
      <point x="978" y="650"/>
      <point x="978" y="778" type="curve" smooth="yes"/>
      <point x="978" y="950"/>
      <point x="844" y="1056"/>
      <point x="570" y="1056" type="curve" smooth="yes"/>
      <point x="356" y="1056"/>
      <point x="230" y="978"/>
      <point x="138" y="842" type="curve"/>
      <point x="250" y="766" type="line"/>
      <point x="310" y="862"/>
      <point x="402" y="918"/>
      <point x="562" y="918" type="curve" smooth="yes"/>
      <point x="742" y="918"/>
      <point x="808" y="858"/>
      <point x="808" y="770" type="curve" smooth="yes"/>
      <point x="808" y="746" type="line" smooth="yes"/>
      <point x="808" y="652"/>
      <point x="740" y="600"/>
      <point x="612" y="600" type="curve" smooth="yes"/>
      <point x="354" y="600" type="line"/>
      <point x="354" y="466" type="line"/>
      <point x="632" y="466" type="line" smooth="yes"/>
      <point x="760" y="466"/>
      <point x="830" y="410"/>
      <point x="830" y="306" type="curve" smooth="yes"/>
      <point x="830" y="278" type="line" smooth="yes"/>
      <point x="830" y="182"/>
      <point x="748" y="114"/>
      <point x="558" y="114" type="curve" smooth="yes"/>
      <point x="406" y="114"/>
      <point x="304" y="170"/>
      <point x="240" y="272" type="curve"/>
      <point x="122" y="176" type="line"/>
      <point x="210" y="48"/>
      <point x="346" y="-24"/>
    </contour>
    <contour>
      <point x="570" y="1032" type="move" name="top"/>
    </contour>
  </outline>
</glyph>
<glyph name="uni043A" format="1">
  <unicode hex="043A"/>
  <advance width="1200" height="1560"/>
  <outline>
    <contour>
      <point x="214" y="0" type="line" name="hr00"/>
      <point x="374" y="0" type="line"/>
      <point x="374" y="464" type="line"/>
      <point x="594" y="464" type="line"/>
      <point x="792" y="120" type="line" smooth="yes"/>
      <point x="842" y="34"/>
      <point x="890" y="0"/>
      <point x="958" y="0" type="curve" smooth="yes"/>
      <point x="1074" y="0" type="line"/>
      <point x="1074" y="136" type="line"/>
      <point x="958" y="136" type="line"/>
      <point x="790" y="428" type="line" smooth="yes"/>
      <point x="750" y="496"/>
      <point x="716" y="520"/>
      <point x="664" y="528" type="curve"/>
      <point x="664" y="536" type="line"/>
      <point x="712" y="548"/>
      <point x="740" y="570"/>
      <point x="786" y="640" type="curve" smooth="yes"/>
      <point x="1038" y="1032" type="line"/>
      <point x="872" y="1032" type="line"/>
      <point x="594" y="600" type="line"/>
      <point x="374" y="600" type="line"/>
      <point x="374" y="1032" type="line"/>
      <point x="214" y="1032" type="line"/>
    </contour>
    <contour>
      <point x="592" y="1032" type="move" name="top"/>
    </contour>
  </outline>
</glyph>
<glyph name="uni043F" format="1">
  <unicode hex="043F"/>
  <advance width="1200" height="1560"/>
  <outline>
    <contour>
      <point x="194" y="0" type="line" name="hr00"/>
      <point x="354" y="0" type="line"/>
      <point x="354" y="896" type="line"/>
      <point x="846" y="896" type="line"/>
      <point x="846" y="0" type="line"/>
      <point x="1006" y="0" type="line"/>
      <point x="1006" y="1032" type="line"/>
      <point x="194" y="1032" type="line"/>
    </contour>
  </outline>
</glyph>
<glyph name="uni044F" format="1">
  <unicode hex="044F"/>
  <advance width="1200" height="1560"/>
  <outline>
    <contour>
      <point x="136" y="0" type="line" name="hr00"/>
      <point x="246" y="0" type="line" smooth="yes"/>
      <point x="330" y="0"/>
      <point x="380" y="44"/>
      <point x="428" y="132" type="curve" smooth="yes"/>
      <point x="570" y="398" type="line"/>
      <point x="820" y="398" type="line"/>
      <point x="820" y="0" type="line"/>
      <point x="980" y="0" type="line"/>
      <point x="980" y="1032" type="line"/>
      <point x="516" y="1032" type="line" smooth="yes"/>
      <point x="306" y="1032"/>
      <point x="178" y="910"/>
      <point x="178" y="714" type="curve" smooth="yes"/>
      <point x="178" y="522"/>
      <point x="296" y="422"/>
      <point x="462" y="414" type="curve"/>
      <point x="462" y="406" type="line"/>
      <point x="410" y="398"/>
      <point x="374" y="366"/>
      <point x="342" y="306" type="curve" smooth="yes"/>
      <point x="252" y="136" type="line"/>
      <point x="136" y="136" type="line"/>
    </contour>
    <contour>
      <point x="820" y="530" type="line"/>
      <point x="540" y="530" type="line" smooth="yes"/>
      <point x="420" y="530"/>
      <point x="348" y="576"/>
      <point x="348" y="682" type="curve" smooth="yes"/>
      <point x="348" y="744" type="line" smooth="yes"/>
      <point x="348" y="850"/>
      <point x="420" y="896"/>
      <point x="540" y="896" type="curve" smooth="yes"/>
      <point x="820" y="896" type="line"/>
    </contour>
  </outline>
</glyph>
<glyph name="uni0454" format="1">
  <unicode hex="0454"/>
  <advance width="1200" height="1560"/>
  <outline>
    <contour>
      <point x="636" y="-24" type="curve" smooth="yes" name="hr00"/>
      <point x="842" y="-24"/>
      <point x="972" y="78"/>
      <point x="1032" y="216" type="curve"/>
      <point x="918" y="294" type="line"/>
      <point x="866" y="182"/>
      <point x="776" y="114"/>
      <point x="638" y="114" type="curve" smooth="yes"/>
      <point x="444" y="114"/>
      <point x="340" y="246"/>
      <point x="340" y="428" type="curve" smooth="yes"/>
      <point x="340" y="454" type="line"/>
      <point x="788" y="454" type="line"/>
      <point x="788" y="588" type="line"/>
      <point x="340" y="588" type="line"/>
      <point x="340" y="604" type="line" smooth="yes"/>
      <point x="340" y="786"/>
      <point x="446" y="918"/>
      <point x="634" y="918" type="curve" smooth="yes"/>
      <point x="762" y="918"/>
      <point x="850" y="856"/>
      <point x="888" y="750" type="curve"/>
      <point x="1016" y="818" type="line"/>
      <point x="958" y="958"/>
      <point x="834" y="1056"/>
      <point x="634" y="1056" type="curve" smooth="yes"/>
      <point x="342" y="1056"/>
      <point x="168" y="844"/>
      <point x="168" y="516" type="curve" smooth="yes"/>
      <point x="168" y="190"/>
      <point x="340" y="-24"/>
    </contour>
  </outline>
</glyph>
<glyph name="uni045A" format="1">
  <unicode hex="045A"/>
  <advance width="1200" height="1560"/>
  <outline>
    <contour>
      <point x="108" y="0" type="line" name="hr00"/>
      <point x="256" y="0" type="line"/>
      <point x="256" y="466" type="line"/>
      <point x="582" y="466" type="line"/>
      <point x="582" y="0" type="line"/>
      <point x="846" y="0" type="line" smooth="yes"/>
      <point x="1056" y="0"/>
      <point x="1172" y="122"/>
      <point x="1172" y="330" type="curve" smooth="yes"/>
      <point x="1172" y="536"/>
      <point x="1056" y="658"/>
      <point x="846" y="658" type="curve" smooth="yes"/>
      <point x="730" y="658" type="line"/>
      <point x="730" y="1032" type="line"/>
      <point x="582" y="1032" type="line"/>
      <point x="582" y="598" type="line"/>
      <point x="256" y="598" type="line"/>
      <point x="256" y="1032" type="line"/>
      <point x="108" y="1032" type="line"/>
    </contour>
    <contour>
      <point x="730" y="132" type="line"/>
      <point x="730" y="526" type="line"/>
      <point x="822" y="526" type="line" smooth="yes"/>
      <point x="946" y="526"/>
      <point x="1014" y="476"/>
      <point x="1014" y="370" type="curve" smooth="yes"/>
      <point x="1014" y="288" type="line" smooth="yes"/>
      <point x="1014" y="182"/>
      <point x="946" y="132"/>
      <point x="822" y="132" type="curve" smooth="yes"/>
    </contour>
  </outline>
</glyph>
<glyph name="uni0472" format="1">
  <unicode hex="0472"/>
  <advance width="1200" height="1560"/>
  <outline>
    <contour>
      <point x="600" y="-24" type="curve" smooth="yes" name="hr00"/>
      <point x="940" y="-24"/>
      <point x="1088" y="242"/>
      <point x="1088" y="698" type="curve" smooth="yes"/>
      <point x="1088" y="1154"/>
      <point x="940" y="1420"/>
      <point x="600" y="1420" type="curve" smooth="yes"/>
      <point x="260" y="1420"/>
      <point x="112" y="1154"/>
      <point x="112" y="698" type="curve" smooth="yes"/>
      <point x="112" y="242"/>
      <point x="260" y="-24"/>
    </contour>
    <contour>
      <point x="600" y="122" type="curve" smooth="yes"/>
      <point x="378" y="122"/>
      <point x="290" y="304"/>
      <point x="290" y="584" type="curve" smooth="yes"/>
      <point x="290" y="634" type="line"/>
      <point x="910" y="634" type="line"/>
      <point x="910" y="584" type="line" smooth="yes"/>
      <point x="910" y="304"/>
      <point x="822" y="122"/>
    </contour>
    <contour>
      <point x="290" y="812" type="line" smooth="yes"/>
      <point x="290" y="1092"/>
      <point x="378" y="1274"/>
      <point x="600" y="1274" type="curve" smooth="yes"/>
      <point x="822" y="1274"/>
      <point x="910" y="1092"/>
      <point x="910" y="812" type="curve" smooth="yes"/>
      <point x="910" y="780" type="line"/>
      <point x="290" y="780" type="line"/>
    </contour>
  </outline>
</glyph>
<glyph name="uni049A" format="1">
  <unicode hex="049A"/>
  <advance width="1200" height="1560"/>
  <outline>
    <contour>
      <point x="964" y="-300" type="line" name="hr00"/>
      <point x="1118" y="-300" type="line"/>
      <point x="1118" y="146" type="line"/>
      <point x="956" y="146" type="line"/>
      <point x="776" y="550" type="line" smooth="yes"/>
      <point x="728" y="660"/>
      <point x="696" y="692"/>
      <point x="636" y="704" type="curve"/>
      <point x="636" y="714" type="line"/>
      <point x="684" y="722"/>
      <point x="720" y="750"/>
      <point x="766" y="844" type="curve" smooth="yes"/>
      <point x="1032" y="1396" type="line"/>
      <point x="854" y="1396" type="line"/>
      <point x="558" y="780" type="line"/>
      <point x="312" y="780" type="line"/>
      <point x="312" y="1396" type="line"/>
      <point x="144" y="1396" type="line"/>
      <point x="144" y="0" type="line"/>
      <point x="312" y="0" type="line"/>
      <point x="312" y="636" type="line"/>
      <point x="558" y="636" type="line"/>
      <point x="774" y="148" type="line" smooth="yes"/>
      <point x="820" y="46"/>
      <point x="876" y="0"/>
      <point x="964" y="0" type="curve"/>
    </contour>
  </outline>
</glyph>
<glyph name="uni049B" format="1">
  <unicode hex="049B"/>
  <advance width="1200" height="1560"/>
  <outline>
    <contour>
      <point x="924" y="-280" type="line" name="hr00"/>
      <point x="1070" y="-280" type="line"/>
      <point x="1070" y="136" type="line"/>
      <point x="942" y="136" type="line"/>
      <point x="774" y="428" type="line" smooth="yes"/>
      <point x="734" y="496"/>
      <point x="700" y="520"/>
      <point x="648" y="528" type="curve"/>
      <point x="648" y="536" type="line"/>
      <point x="696" y="548"/>
      <point x="724" y="570"/>
      <point x="770" y="640" type="curve" smooth="yes"/>
      <point x="1022" y="1032" type="line"/>
      <point x="856" y="1032" type="line"/>
      <point x="578" y="600" type="line"/>
      <point x="358" y="600" type="line"/>
      <point x="358" y="1032" type="line"/>
      <point x="198" y="1032" type="line"/>
      <point x="198" y="0" type="line"/>
      <point x="358" y="0" type="line"/>
      <point x="358" y="464" type="line"/>
      <point x="578" y="464" type="line"/>
      <point x="776" y="120" type="line" smooth="yes"/>
      <point x="820" y="42"/>
      <point x="864" y="8"/>
      <point x="924" y="0" type="curve"/>
    </contour>
  </outline>
</glyph>
<glyph name="uni04A1" format="1">
  <unicode hex="04A1"/>
  <advance width="1200" height="1560"/>
  <outline>
    <contour>
      <point x="322" y="0" type="line" name="hr00"/>
      <point x="482" y="0" type="line"/>
      <point x="482" y="464" type="line"/>
      <point x="674" y="464" type="line"/>
      <point x="842" y="144" type="line" smooth="yes"/>
      <point x="900" y="32"/>
      <point x="950" y="0"/>
      <point x="1018" y="0" type="curve" smooth="yes"/>
      <point x="1134" y="0" type="line"/>
      <point x="1134" y="136" type="line"/>
      <point x="1018" y="136" type="line"/>
      <point x="868" y="422" type="line" smooth="yes"/>
      <point x="832" y="490"/>
      <point x="790" y="520"/>
      <point x="738" y="528" type="curve"/>
      <point x="738" y="536" type="line"/>
      <point x="786" y="548"/>
      <point x="824" y="576"/>
      <point x="864" y="644" type="curve" smooth="yes"/>
      <point x="1098" y="1032" type="line"/>
      <point x="932" y="1032" type="line"/>
      <point x="674" y="600" type="line"/>
      <point x="482" y="600" type="line"/>
      <point x="482" y="1032" type="line"/>
      <point x="22" y="1032" type="line"/>
      <point x="22" y="896" type="line"/>
      <point x="322" y="896" type="line"/>
    </contour>
  </outline>
</glyph>
<glyph name="uni04A3" format="1">
  <unicode hex="04A3"/>
  <advance width="1200" height="1560"/>
  <outline>
    <contour>
      <point x="168" y="0" type="line" name="hr00"/>
      <point x="328" y="0" type="line"/>
      <point x="328" y="464" type="line"/>
      <point x="810" y="464" type="line"/>
      <point x="810" y="0" type="line"/>
      <point x="994" y="0" type="line"/>
      <point x="994" y="-280" type="line"/>
      <point x="1140" y="-280" type="line"/>
      <point x="1140" y="136" type="line"/>
      <point x="970" y="136" type="line"/>
      <point x="970" y="1032" type="line"/>
      <point x="810" y="1032" type="line"/>
      <point x="810" y="600" type="line"/>
      <point x="328" y="600" type="line"/>
      <point x="328" y="1032" type="line"/>
      <point x="168" y="1032" type="line"/>
    </contour>
  </outline>
</glyph>
<glyph name="uni04AB" format="1">
  <unicode hex="04AB"/>
  <advance width="1200" height="1560"/>
  <outline>
    <contour>
      <point x="564" y="-280" type="line" name="hr00"/>
      <point x="710" y="-280" type="line"/>
      <point x="710" y="-20" type="line"/>
      <point x="874" y="2"/>
      <point x="978" y="94"/>
      <point x="1032" y="216" type="curve"/>
      <point x="918" y="294" type="line"/>
      <point x="866" y="182"/>
      <point x="776" y="114"/>
      <point x="638" y="114" type="curve" smooth="yes"/>
      <point x="444" y="114"/>
      <point x="340" y="246"/>
      <point x="340" y="428" type="curve" smooth="yes"/>
      <point x="340" y="604" type="line" smooth="yes"/>
      <point x="340" y="786"/>
      <point x="446" y="918"/>
      <point x="634" y="918" type="curve" smooth="yes"/>
      <point x="762" y="918"/>
      <point x="850" y="856"/>
      <point x="888" y="750" type="curve"/>
      <point x="1016" y="818" type="line"/>
      <point x="958" y="958"/>
      <point x="834" y="1056"/>
      <point x="634" y="1056" type="curve" smooth="yes"/>
      <point x="342" y="1056"/>
      <point x="168" y="844"/>
      <point x="168" y="516" type="curve" smooth="yes"/>
      <point x="168" y="218"/>
      <point x="312" y="12"/>
      <point x="564" y="-20" type="curve"/>
    </contour>
  </outline>
</glyph>
<glyph name="uni04B1" format="1">
  <unicode hex="04B1"/>
  <advance width="1200" height="1560"/>
  <outline>
    <contour>
      <point x="520" y="-400" type="line" name="hr00"/>
      <point x="680" y="-400" type="line"/>
      <point x="680" y="-124" type="line"/>
      <point x="950" y="-124" type="line"/>
      <point x="950" y="0" type="line"/>
      <point x="680" y="0" type="line"/>
      <point x="1072" y="1032" type="line"/>
      <point x="914" y="1032" type="line"/>
      <point x="766" y="628" type="line"/>
      <point x="606" y="180" type="line"/>
      <point x="598" y="180" type="line"/>
      <point x="438" y="628" type="line"/>
      <point x="290" y="1032" type="line"/>
      <point x="128" y="1032" type="line"/>
      <point x="520" y="0" type="line"/>
      <point x="250" y="0" type="line"/>
      <point x="250" y="-124" type="line"/>
      <point x="520" y="-124" type="line"/>
    </contour>
  </outline>
</glyph>
<glyph name="uni04B6" format="1">
  <unicode hex="04B6"/>
  <advance width="1200" height="1560"/>
  <outline>
    <contour>
      <point x="994" y="-300" type="line" name="hr00"/>
      <point x="1148" y="-300" type="line"/>
      <point x="1148" y="146" type="line"/>
      <point x="998" y="146" type="line"/>
      <point x="998" y="1396" type="line"/>
      <point x="830" y="1396" type="line"/>
      <point x="830" y="698" type="line"/>
      <point x="754" y="666"/>
      <point x="678" y="650"/>
      <point x="552" y="650" type="curve" smooth="yes"/>
      <point x="344" y="650"/>
      <point x="274" y="744"/>
      <point x="274" y="1000" type="curve" smooth="yes"/>
      <point x="274" y="1396" type="line"/>
      <point x="106" y="1396" type="line"/>
      <point x="106" y="1000" type="line" smooth="yes"/>
      <point x="106" y="664"/>
      <point x="220" y="504"/>
      <point x="546" y="504" type="curve" smooth="yes"/>
      <point x="664" y="504"/>
      <point x="756" y="522"/>
      <point x="820" y="550" type="curve"/>
      <point x="830" y="550" type="line"/>
      <point x="830" y="0" type="line"/>
      <point x="994" y="0" type="line"/>
    </contour>
  </outline>
</glyph>
<glyph name="uni04B9" format="1">
  <unicode hex="04B9"/>
  <advance width="1200" height="1560"/>
  <outline>
    <contour>
      <point x="820" y="0" type="line" name="hr00"/>
      <point x="980" y="0" type="line"/>
      <point x="980" y="1032" type="line"/>
      <point x="820" y="1032" type="line"/>
      <point x="820" y="620" type="line" smooth="yes"/>
      <point x="820" y="548"/>
      <point x="742" y="508"/>
      <point x="632" y="496" type="curve"/>
      <point x="632" y="784" type="line"/>
      <point x="508" y="784" type="line"/>
      <point x="508" y="496" type="line"/>
      <point x="386" y="502"/>
      <point x="320" y="562"/>
      <point x="320" y="682" type="curve" smooth="yes"/>
      <point x="320" y="1032" type="line"/>
      <point x="160" y="1032" type="line"/>
      <point x="160" y="668" type="line" smooth="yes"/>
      <point x="160" y="456"/>
      <point x="278" y="350"/>
      <point x="508" y="350" type="curve"/>
      <point x="508" y="178" type="line"/>
      <point x="632" y="178" type="line"/>
      <point x="632" y="362" type="line"/>
      <point x="698" y="378"/>
      <point x="762" y="416"/>
      <point x="810" y="472" type="curve"/>
      <point x="820" y="472" type="line"/>
    </contour>
  </outline>
</glyph>
<glyph name="uni04BA" format="1">
  <unicode hex="04BA"/>
  <advance width="1200" height="1560"/>
  <outline>
    <contour>
      <point x="176" y="0" type="line" name="hr00"/>
      <point x="344" y="0" type="line"/>
      <point x="344" y="698" type="line"/>
      <point x="428" y="730"/>
      <point x="508" y="746"/>
      <point x="628" y="746" type="curve" smooth="yes"/>
      <point x="842" y="746"/>
      <point x="912" y="652"/>
      <point x="912" y="396" type="curve" smooth="yes"/>
      <point x="912" y="0" type="line"/>
      <point x="1080" y="0" type="line"/>
      <point x="1080" y="396" type="line" smooth="yes"/>
      <point x="1080" y="732"/>
      <point x="966" y="892"/>
      <point x="634" y="892" type="curve" smooth="yes"/>
      <point x="522" y="892"/>
      <point x="426" y="874"/>
      <point x="354" y="846" type="curve"/>
      <point x="344" y="846" type="line"/>
      <point x="344" y="1396" type="line"/>
      <point x="176" y="1396" type="line"/>
    </contour>
  </outline>
</glyph>
<glyph name="uni04CF" format="1">
  <unicode hex="04CF"/>
  <advance width="1200" height="1560"/>
  <outline>
    <contour>
      <point x="160" y="0" type="line" name="hr00"/>
      <point x="1040" y="0" type="line"/>
      <point x="1040" y="136" type="line"/>
      <point x="680" y="136" type="line"/>
      <point x="680" y="1344" type="line"/>
      <point x="1040" y="1344" type="line"/>
      <point x="1040" y="1480" type="line"/>
      <point x="160" y="1480" type="line"/>
      <point x="160" y="1344" type="line"/>
      <point x="520" y="1344" type="line"/>
      <point x="520" y="136" type="line"/>
      <point x="160" y="136" type="line"/>
    </contour>
  </outline>
</glyph>
<glyph name="baht" format="1">
  <unicode hex="0E3F"/>
  <advance width="1200" height="1560"/>
  <outline>
    <contour>
      <point x="652" y="0" type="line"/>
      <point x="700" y="0" type="line" smooth="yes"/>
      <point x="916" y="0"/>
      <point x="1076" y="176"/>
      <point x="1076" y="402" type="curve" smooth="yes"/>
      <point x="1076" y="588"/>
      <point x="966" y="678"/>
      <point x="826" y="722" type="curve"/>
      <point x="826" y="728" type="line"/>
      <point x="956" y="770"/>
      <point x="1052" y="858"/>
      <point x="1052" y="1036" type="curve" smooth="yes" name="hr01"/>
      <point x="1052" y="1254"/>
      <point x="906" y="1396"/>
      <point x="668" y="1396" type="curve" smooth="yes"/>
      <point x="652" y="1396" type="line"/>
      <point x="652" y="1622" type="line"/>
      <point x="528" y="1622" type="line"/>
      <point x="528" y="1396" type="line"/>
      <point x="176" y="1396" type="line"/>
      <point x="176" y="0" type="line"/>
      <point x="528" y="0" type="line"/>
      <point x="528" y="-226" type="line"/>
      <point x="652" y="-226" type="line"/>
    </contour>
    <contour>
      <point x="340" y="788" type="line"/>
      <point x="340" y="1254" type="line"/>
      <point x="530" y="1254" type="line"/>
      <point x="530" y="788" type="line"/>
    </contour>
    <contour>
      <point x="650" y="1254" type="line"/>
      <point x="802" y="1254"/>
      <point x="884" y="1188"/>
      <point x="884" y="1060" type="curve" smooth="yes"/>
      <point x="884" y="978" type="line" smooth="yes"/>
      <point x="884" y="850"/>
      <point x="802" y="788"/>
      <point x="650" y="788" type="curve"/>
    </contour>
    <contour>
      <point x="340" y="142" type="line"/>
      <point x="340" y="654" type="line"/>
      <point x="530" y="654" type="line"/>
      <point x="530" y="142" type="line"/>
    </contour>
    <contour>
      <point x="650" y="654" type="line"/>
      <point x="816" y="654"/>
      <point x="906" y="582"/>
      <point x="906" y="442" type="curve" smooth="yes" name="hr02"/>
      <point x="906" y="354" type="line" smooth="yes"/>
      <point x="906" y="212"/>
      <point x="816" y="142"/>
      <point x="650" y="142" type="curve"/>
    </contour>
  </outline>
</glyph>
<glyph name="quotesinglbase" format="1">
  <unicode hex="201A"/>
  <advance width="1200" height="1560"/>
  <outline>
    <contour>
      <point x="408" y="-282" type="line" name="hr00"/>
      <point x="542" y="-282" type="line"/>
      <point x="772" y="272" type="line"/>
      <point x="514" y="272" type="line"/>
    </contour>
  </outline>
</glyph>
<glyph name="daggerdbl" format="1">
  <unicode hex="2021"/>
  <advance width="1200" height="1560"/>
  <outline>
    <contour>
      <point x="670" y="-400" type="line" name="hr00"/>
      <point x="670" y="48" type="line"/>
      <point x="1060" y="48" type="line"/>
      <point x="1060" y="176" type="line"/>
      <point x="670" y="176" type="line"/>
      <point x="670" y="904" type="line"/>
      <point x="1060" y="904" type="line"/>
      <point x="1060" y="1032" type="line"/>
      <point x="670" y="1032" type="line"/>
      <point x="670" y="1480" type="line"/>
      <point x="530" y="1480" type="line"/>
      <point x="530" y="1032" type="line"/>
      <point x="140" y="1032" type="line"/>
      <point x="140" y="904" type="line"/>
      <point x="530" y="904" type="line"/>
      <point x="530" y="176" type="line"/>
      <point x="140" y="176" type="line"/>
      <point x="140" y="48" type="line"/>
      <point x="530" y="48" type="line"/>
      <point x="530" y="-400" type="line"/>
    </contour>
  </outline>
</glyph>
<glyph name="perthousand" format="1">
  <unicode hex="2030"/>
  <advance width="1200" height="1560"/>
  <outline>
    <contour>
      <point x="278" y="800" type="curve" smooth="yes" name="hr00"/>
      <point x="452" y="800"/>
      <point x="556" y="906"/>
      <point x="556" y="1110" type="curve" smooth="yes"/>
      <point x="556" y="1316"/>
      <point x="450" y="1420"/>
      <point x="278" y="1420" type="curve" smooth="yes"/>
      <point x="104" y="1420"/>
      <point x="0" y="1314"/>
      <point x="0" y="1110" type="curve" smooth="yes"/>
      <point x="0" y="904"/>
      <point x="106" y="800"/>
    </contour>
    <contour>
      <point x="278" y="900" type="curve" smooth="yes"/>
      <point x="188" y="900"/>
      <point x="136" y="966"/>
      <point x="136" y="1062" type="curve" smooth="yes"/>
      <point x="136" y="1158" type="line" smooth="yes"/>
      <point x="136" y="1254"/>
      <point x="188" y="1320"/>
      <point x="278" y="1320" type="curve" smooth="yes"/>
      <point x="368" y="1320"/>
      <point x="420" y="1254"/>
      <point x="420" y="1158" type="curve" smooth="yes"/>
      <point x="420" y="1062" type="line" smooth="yes"/>
      <point x="420" y="966"/>
      <point x="368" y="900"/>
    </contour>
    <contour>
      <point x="162" y="556" type="line"/>
      <point x="1062" y="908" type="line"/>
      <point x="1022" y="1008" type="line"/>
      <point x="122" y="656" type="line"/>
    </contour>
    <contour>
      <point x="496" y="-24" type="curve" smooth="yes"/>
      <point x="586" y="-24"/>
      <point x="658" y="12"/>
      <point x="706" y="76" type="curve"/>
      <point x="718" y="76" type="line"/>
      <point x="766" y="12"/>
      <point x="838" y="-24"/>
      <point x="928" y="-24" type="curve" smooth="yes"/>
      <point x="1096" y="-24"/>
      <point x="1200" y="82"/>
      <point x="1200" y="286" type="curve" smooth="yes"/>
      <point x="1200" y="490"/>
      <point x="1096" y="596"/>
      <point x="928" y="596" type="curve" smooth="yes"/>
      <point x="838" y="596"/>
      <point x="766" y="560"/>
      <point x="718" y="496" type="curve"/>
      <point x="708" y="496" type="line"/>
      <point x="658" y="560"/>
      <point x="586" y="596"/>
      <point x="496" y="596" type="curve" smooth="yes"/>
      <point x="328" y="596"/>
      <point x="224" y="490"/>
      <point x="224" y="286" type="curve" smooth="yes"/>
      <point x="224" y="82"/>
      <point x="328" y="-24"/>
    </contour>
    <contour>
      <point x="502" y="76" type="curve" smooth="yes"/>
      <point x="412" y="76"/>
      <point x="360" y="142"/>
      <point x="360" y="238" type="curve" smooth="yes"/>
      <point x="360" y="334" type="line" smooth="yes"/>
      <point x="360" y="430"/>
      <point x="412" y="496"/>
      <point x="502" y="496" type="curve" smooth="yes"/>
      <point x="592" y="496"/>
      <point x="644" y="430"/>
      <point x="644" y="334" type="curve" smooth="yes"/>
      <point x="644" y="238" type="line" smooth="yes"/>
      <point x="644" y="142"/>
      <point x="592" y="76"/>
    </contour>
    <contour>
      <point x="922" y="76" type="curve" smooth="yes"/>
      <point x="832" y="76"/>
      <point x="780" y="142"/>
      <point x="780" y="238" type="curve" smooth="yes"/>
      <point x="780" y="334" type="line" smooth="yes"/>
      <point x="780" y="430"/>
      <point x="832" y="496"/>
      <point x="922" y="496" type="curve" smooth="yes"/>
      <point x="1012" y="496"/>
      <point x="1064" y="430"/>
      <point x="1064" y="334" type="curve" smooth="yes"/>
      <point x="1064" y="238" type="line" smooth="yes"/>
      <point x="1064" y="142"/>
      <point x="1012" y="76"/>
    </contour>
  </outline>
</glyph>
<glyph name="ninesuperior" format="1">
  <unicode hex="2079"/>
  <advance width="1200" height="1560"/>
  <outline>
    <contour>
      <point x="876" y="1120" type="curve" smooth="yes" name="hr00"/>
      <point x="876" y="1298"/>
      <point x="772" y="1408"/>
      <point x="596" y="1408" type="curve" smooth="yes"/>
      <point x="424" y="1408"/>
      <point x="314" y="1306"/>
      <point x="314" y="1158" type="curve" smooth="yes"/>
      <point x="314" y="1018"/>
      <point x="414" y="928"/>
      <point x="552" y="928" type="curve" smooth="yes"/>
      <point x="652" y="928"/>
      <point x="706" y="978"/>
      <point x="738" y="1036" type="curve"/>
      <point x="746" y="1034" type="line"/>
      <point x="708" y="876"/>
      <point x="604" y="780"/>
      <point x="422" y="658" type="curve"/>
      <point x="590" y="658" type="line"/>
      <point x="724" y="740"/>
      <point x="876" y="908"/>
    </contour>
    <contour>
      <point x="594" y="1024" type="curve" smooth="yes"/>
      <point x="502" y="1024"/>
      <point x="442" y="1070"/>
      <point x="442" y="1162" type="curve" smooth="yes"/>
      <point x="442" y="1174" type="line" smooth="yes"/>
      <point x="442" y="1266"/>
      <point x="502" y="1312"/>
      <point x="594" y="1312" type="curve" smooth="yes"/>
      <point x="686" y="1312"/>
      <point x="746" y="1266"/>
      <point x="746" y="1174" type="curve" smooth="yes"/>
      <point x="746" y="1162" type="line" smooth="yes"/>
      <point x="746" y="1070"/>
      <point x="686" y="1024"/>
    </contour>
  </outline>
</glyph>
<glyph name="zeroinferior" format="1">
  <unicode hex="2080"/>
  <advance width="1200" height="1560"/>
  <outline>
    <contour>
      <point x="600" y="-12" type="curve" smooth="yes" name="hr00"/>
      <point x="800" y="-12"/>
      <point x="890" y="126"/>
      <point x="890" y="370" type="curve" smooth="yes"/>
      <point x="890" y="612"/>
      <point x="800" y="750"/>
      <point x="600" y="750" type="curve" smooth="yes"/>
      <point x="400" y="750"/>
      <point x="310" y="612"/>
      <point x="310" y="370" type="curve" smooth="yes"/>
      <point x="310" y="126"/>
      <point x="400" y="-12"/>
    </contour>
    <contour>
      <point x="600" y="90" type="curve" smooth="yes"/>
      <point x="486" y="90"/>
      <point x="444" y="174"/>
      <point x="444" y="304" type="curve" smooth="yes"/>
      <point x="444" y="434" type="line" smooth="yes"/>
      <point x="444" y="564"/>
      <point x="486" y="648"/>
      <point x="600" y="648" type="curve" smooth="yes"/>
      <point x="714" y="648"/>
      <point x="756" y="564"/>
      <point x="756" y="434" type="curve" smooth="yes"/>
      <point x="756" y="304" type="line" smooth="yes"/>
      <point x="756" y="174"/>
      <point x="714" y="90"/>
    </contour>
    <contour>
      <point x="600" y="310" type="curve" smooth="yes"/>
      <point x="644" y="310"/>
      <point x="658" y="332"/>
      <point x="658" y="358" type="curve" smooth="yes"/>
      <point x="658" y="380" type="line" smooth="yes"/>
      <point x="658" y="406"/>
      <point x="644" y="428"/>
      <point x="600" y="428" type="curve" smooth="yes"/>
      <point x="556" y="428"/>
      <point x="542" y="406"/>
      <point x="542" y="380" type="curve" smooth="yes"/>
      <point x="542" y="358" type="line" smooth="yes"/>
      <point x="542" y="332"/>
      <point x="556" y="310"/>
    </contour>
  </outline>
</glyph>
<glyph name="twoinferior" format="1">
  <unicode hex="2082"/>
  <advance width="1200" height="1560"/>
  <outline>
    <contour>
      <point x="876" y="100" type="line" name="hr00"/>
      <point x="466" y="100" type="line"/>
      <point x="660" y="250" type="line" smooth="yes"/>
      <point x="772" y="336"/>
      <point x="850" y="416"/>
      <point x="850" y="532" type="curve" smooth="yes"/>
      <point x="850" y="660"/>
      <point x="758" y="750"/>
      <point x="594" y="750" type="curve" smooth="yes"/>
      <point x="434" y="750"/>
      <point x="354" y="664"/>
      <point x="322" y="570" type="curve"/>
      <point x="430" y="530" type="line"/>
      <point x="452" y="594"/>
      <point x="494" y="646"/>
      <point x="586" y="646" type="curve" smooth="yes"/>
      <point x="670" y="646"/>
      <point x="716" y="600"/>
      <point x="716" y="532" type="curve" smooth="yes"/>
      <point x="716" y="520" type="line" smooth="yes"/>
      <point x="716" y="452"/>
      <point x="670" y="388"/>
      <point x="592" y="324" type="curve" smooth="yes"/>
      <point x="332" y="114" type="line"/>
      <point x="332" y="0" type="line"/>
      <point x="876" y="0" type="line"/>
    </contour>
  </outline>
</glyph>
<glyph name="threeinferior" format="1">
  <unicode hex="2083"/>
  <advance width="1200" height="1560"/>
  <outline>
    <contour>
      <point x="484" y="434" type="line"/>
      <point x="484" y="332" type="line"/>
      <point x="574" y="332" type="line" smooth="yes"/>
      <point x="674" y="332"/>
      <point x="728" y="298"/>
      <point x="728" y="222" type="curve" smooth="yes"/>
      <point x="728" y="210" type="line" smooth="yes"/>
      <point x="728" y="134"/>
      <point x="674" y="88"/>
      <point x="574" y="88" type="curve" smooth="yes"/>
      <point x="482" y="88"/>
      <point x="434" y="130"/>
      <point x="396" y="188" type="curve"/>
      <point x="302" y="120" type="line"/>
      <point x="352" y="52"/>
      <point x="428" y="-12"/>
      <point x="574" y="-12" type="curve" smooth="yes"/>
      <point x="748" y="-12"/>
      <point x="860" y="74"/>
      <point x="860" y="204" type="curve" smooth="yes"/>
      <point x="860" y="310"/>
      <point x="782" y="368"/>
      <point x="692" y="384" type="curve"/>
      <point x="692" y="390" type="line"/>
      <point x="776" y="408"/>
      <point x="848" y="464"/>
      <point x="848" y="560" type="curve" smooth="yes" name="hr01"/>
      <point x="848" y="680"/>
      <point x="738" y="750"/>
      <point x="588" y="750" type="curve" smooth="yes"/>
      <point x="456" y="750"/>
      <point x="378" y="694"/>
      <point x="332" y="628" type="curve"/>
      <point x="418" y="560" type="line"/>
      <point x="454" y="616"/>
      <point x="506" y="650"/>
      <point x="584" y="650" type="curve" smooth="yes"/>
      <point x="664" y="650"/>
      <point x="714" y="612"/>
      <point x="714" y="546" type="curve" smooth="yes"/>
      <point x="714" y="538" type="line" smooth="yes"/>
      <point x="714" y="478"/>
      <point x="666" y="434"/>
      <point x="564" y="434" type="curve" smooth="yes"/>
    </contour>
  </outline>
</glyph>
<glyph name="fiveinferior" format="1">
  <unicode hex="2085"/>
  <advance width="1200" height="1560"/>
  <outline>
    <contour>
      <point x="830" y="638" type="line" name="hr00"/>
      <point x="830" y="738" type="line"/>
      <point x="374" y="738" type="line"/>
      <point x="346" y="326" type="line"/>
      <point x="450" y="312" type="line"/>
      <point x="480" y="342"/>
      <point x="516" y="370"/>
      <point x="586" y="370" type="curve" smooth="yes"/>
      <point x="686" y="370"/>
      <point x="738" y="318"/>
      <point x="738" y="234" type="curve" smooth="yes"/>
      <point x="738" y="224" type="line" smooth="yes"/>
      <point x="738" y="140"/>
      <point x="686" y="88"/>
      <point x="586" y="88" type="curve" smooth="yes"/>
      <point x="494" y="88"/>
      <point x="450" y="130"/>
      <point x="410" y="188" type="curve"/>
      <point x="320" y="120" type="line"/>
      <point x="368" y="52"/>
      <point x="442" y="-12"/>
      <point x="584" y="-12" type="curve" smooth="yes"/>
      <point x="764" y="-12"/>
      <point x="870" y="92"/>
      <point x="870" y="240" type="curve" smooth="yes"/>
      <point x="870" y="384"/>
      <point x="764" y="470"/>
      <point x="626" y="470" type="curve" smooth="yes"/>
      <point x="536" y="470"/>
      <point x="494" y="430"/>
      <point x="458" y="372" type="curve"/>
      <point x="450" y="372" type="line"/>
      <point x="472" y="638" type="line"/>
    </contour>
  </outline>
</glyph>
<glyph name="rupee" format="1">
  <unicode hex="20A8"/>
  <advance width="1200" height="1560"/>
  <outline>
    <contour>
      <point x="258" y="0" type="line"/>
      <point x="258" y="644" type="line"/>
      <point x="346" y="644" type="line"/>
      <point x="532" y="186" type="line" smooth="yes"/>
      <point x="596" y="30"/>
      <point x="708" y="-24"/>
      <point x="862" y="-24" type="curve" smooth="yes" name="hr01"/>
      <point x="1078" y="-24"/>
      <point x="1178" y="84"/>
      <point x="1178" y="242" type="curve" smooth="yes"/>
      <point x="1178" y="374"/>
      <point x="1108" y="434"/>
      <point x="1022" y="520" type="curve" smooth="yes"/>
      <point x="992" y="550" type="line" smooth="yes"/>
      <point x="914" y="628"/>
      <point x="884" y="662"/>
      <point x="884" y="722" type="curve" smooth="yes"/>
      <point x="884" y="786"/>
      <point x="920" y="824"/>
      <point x="986" y="824" type="curve" smooth="yes"/>
      <point x="1032" y="824"/>
      <point x="1072" y="806"/>
      <point x="1106" y="780" type="curve"/>
      <point x="1170" y="888" type="line"/>
      <point x="1110" y="934"/>
      <point x="1044" y="952"/>
      <point x="978" y="952" type="curve" smooth="yes"/>
      <point x="822" y="952"/>
      <point x="734" y="852"/>
      <point x="734" y="722" type="curve" smooth="yes"/>
      <point x="734" y="612"/>
      <point x="798" y="536"/>
      <point x="882" y="452" type="curve" smooth="yes"/>
      <point x="920" y="414" type="line" smooth="yes"/>
      <point x="988" y="346"/>
      <point x="1028" y="318"/>
      <point x="1028" y="242" type="curve" smooth="yes"/>
      <point x="1028" y="154"/>
      <point x="972" y="110"/>
      <point x="876" y="110" type="curve" smooth="yes"/>
      <point x="776" y="110"/>
      <point x="720" y="156"/>
      <point x="676" y="260" type="curve" smooth="yes"/>
      <point x="500" y="676" type="line"/>
      <point x="642" y="722"/>
      <point x="700" y="842"/>
      <point x="700" y="1022" type="curve" smooth="yes"/>
      <point x="700" y="1260"/>
      <point x="600" y="1396"/>
      <point x="356" y="1396" type="curve" smooth="yes"/>
      <point x="98" y="1396" type="line"/>
      <point x="98" y="0" type="line" name="hr02"/>
    </contour>
    <contour>
      <point x="258" y="784" type="line"/>
      <point x="258" y="1252" type="line"/>
      <point x="342" y="1252" type="line" smooth="yes"/>
      <point x="476" y="1252"/>
      <point x="536" y="1186"/>
      <point x="536" y="1064" type="curve" smooth="yes"/>
      <point x="536" y="972" type="line" smooth="yes"/>
      <point x="536" y="850"/>
      <point x="476" y="784"/>
      <point x="342" y="784" type="curve" smooth="yes"/>
    </contour>
  </outline>
</glyph>
<glyph name="guarani" format="1">
  <unicode hex="20B2"/>
  <advance width="1200" height="1560"/>
  <outline>
    <contour>
      <point x="378" y="-226" type="line" name="hr00"/>
      <point x="504" y="-226" type="line"/>
      <point x="540" y="-20" type="line"/>
      <point x="562" y="-22"/>
      <point x="584" y="-24"/>
      <point x="608" y="-24" type="curve" smooth="yes"/>
      <point x="908" y="-24"/>
      <point x="1044" y="190"/>
      <point x="1044" y="488" type="curve" smooth="yes"/>
      <point x="1044" y="690" type="line"/>
      <point x="664" y="690" type="line"/>
      <point x="762" y="1250" type="line"/>
      <point x="838" y="1210"/>
      <point x="878" y="1136"/>
      <point x="912" y="1054" type="curve"/>
      <point x="1048" y="1114" type="line"/>
      <point x="998" y="1226"/>
      <point x="928" y="1340"/>
      <point x="790" y="1392" type="curve"/>
      <point x="830" y="1622" type="line"/>
      <point x="704" y="1622" type="line"/>
      <point x="668" y="1418" type="line"/>
      <point x="652" y="1420"/>
      <point x="634" y="1420"/>
      <point x="616" y="1420" type="curve" smooth="yes"/>
      <point x="280" y="1420"/>
      <point x="112" y="1164"/>
      <point x="112" y="698" type="curve" smooth="yes"/>
      <point x="112" y="332"/>
      <point x="216" y="96"/>
      <point x="420" y="10" type="curve"/>
    </contour>
    <contour>
      <point x="446" y="156" type="line"/>
      <point x="336" y="228"/>
      <point x="278" y="380"/>
      <point x="278" y="584" type="curve" smooth="yes"/>
      <point x="278" y="812" type="line" smooth="yes"/>
      <point x="278" y="1098"/>
      <point x="390" y="1282"/>
      <point x="618" y="1282" type="curve" smooth="yes"/>
      <point x="628" y="1282"/>
      <point x="638" y="1282"/>
      <point x="646" y="1280" type="curve"/>
    </contour>
    <contour>
      <point x="610" y="110" type="curve" smooth="yes"/>
      <point x="594" y="110"/>
      <point x="576" y="112"/>
      <point x="562" y="114" type="curve"/>
      <point x="640" y="560" type="line"/>
      <point x="892" y="560" type="line"/>
      <point x="892" y="456" type="line" smooth="yes"/>
      <point x="892" y="240"/>
      <point x="790" y="110"/>
    </contour>
  </outline>
</glyph>
<glyph name="cedi" format="1">
  <unicode hex="20B5"/>
  <advance width="1200" height="1560"/>
  <outline>
    <contour>
      <point x="388" y="-226" type="line" name="hr00"/>
      <point x="514" y="-226" type="line"/>
      <point x="552" y="-16" type="line"/>
      <point x="582" y="-22"/>
      <point x="612" y="-24"/>
      <point x="646" y="-24" type="curve" smooth="yes"/>
      <point x="902" y="-24"/>
      <point x="1008" y="130"/>
      <point x="1076" y="282" type="curve"/>
      <point x="940" y="344" type="line"/>
      <point x="890" y="220"/>
      <point x="822" y="114"/>
      <point x="646" y="114" type="curve" smooth="yes"/>
      <point x="620" y="114"/>
      <point x="596" y="116"/>
      <point x="572" y="122" type="curve"/>
      <point x="774" y="1258" type="line"/>
      <point x="860" y="1220"/>
      <point x="904" y="1142"/>
      <point x="940" y="1054" type="curve"/>
      <point x="1076" y="1114" type="line"/>
      <point x="1024" y="1232"/>
      <point x="948" y="1350"/>
      <point x="800" y="1398" type="curve"/>
      <point x="840" y="1622" type="line"/>
      <point x="714" y="1622" type="line"/>
      <point x="678" y="1420" type="line"/>
      <point x="646" y="1420" type="line" smooth="yes"/>
      <point x="306" y="1420"/>
      <point x="140" y="1162"/>
      <point x="140" y="698" type="curve" smooth="yes"/>
      <point x="140" y="344"/>
      <point x="236" y="110"/>
      <point x="432" y="20" type="curve"/>
    </contour>
    <contour>
      <point x="460" y="170" type="line"/>
      <point x="356" y="246"/>
      <point x="306" y="392"/>
      <point x="306" y="584" type="curve" smooth="yes"/>
      <point x="306" y="812" type="line" smooth="yes"/>
      <point x="306" y="1098"/>
      <point x="414" y="1282"/>
      <point x="656" y="1282" type="curve"/>
    </contour>
  </outline>
</glyph>
<glyph name="liraturkish" format="1">
  <unicode hex="20BA"/>
  <advance width="1200" height="1560"/>
  <outline>
    <contour>
      <point x="310" y="0" type="line" name="hr00"/>
      <point x="592" y="0" type="line" smooth="yes"/>
      <point x="934" y="0"/>
      <point x="1108" y="270"/>
      <point x="1108" y="610" type="curve"/>
      <point x="944" y="610" type="line"/>
      <point x="944" y="326"/>
      <point x="808" y="146"/>
      <point x="582" y="146" type="curve" smooth="yes"/>
      <point x="478" y="146" type="line"/>
      <point x="478" y="572" type="line"/>
      <point x="842" y="742" type="line"/>
      <point x="842" y="880" type="line"/>
      <point x="478" y="710" type="line"/>
      <point x="478" y="892" type="line"/>
      <point x="842" y="1062" type="line"/>
      <point x="842" y="1200" type="line"/>
      <point x="478" y="1030" type="line"/>
      <point x="478" y="1396" type="line"/>
      <point x="310" y="1396" type="line"/>
      <point x="310" y="952" type="line"/>
      <point x="112" y="860" type="line"/>
      <point x="112" y="722" type="line"/>
      <point x="310" y="814" type="line"/>
      <point x="310" y="632" type="line"/>
      <point x="112" y="540" type="line"/>
      <point x="112" y="402" type="line"/>
      <point x="310" y="494" type="line"/>
    </contour>
  </outline>
</glyph>
<glyph name="litre" format="1">
  <unicode hex="2113"/>
  <advance width="1200" height="1560"/>
  <outline>
    <contour>
      <point x="642" y="-24" type="curve" smooth="yes" name="hr00"/>
      <point x="842" y="-24"/>
      <point x="958" y="100"/>
      <point x="1020" y="254" type="curve"/>
      <point x="904" y="324" type="line"/>
      <point x="830" y="188"/>
      <point x="768" y="110"/>
      <point x="650" y="110" type="curve" smooth="yes"/>
      <point x="540" y="110"/>
      <point x="476" y="176"/>
      <point x="476" y="356" type="curve" smooth="yes"/>
      <point x="476" y="446" type="line"/>
      <point x="748" y="686"/>
      <point x="896" y="904"/>
      <point x="896" y="1170" type="curve" smooth="yes"/>
      <point x="896" y="1386"/>
      <point x="796" y="1504"/>
      <point x="614" y="1504" type="curve" smooth="yes"/>
      <point x="438" y="1504"/>
      <point x="318" y="1396"/>
      <point x="318" y="1110" type="curve" smooth="yes"/>
      <point x="318" y="518" type="line"/>
      <point x="262" y="474"/>
      <point x="198" y="436"/>
      <point x="140" y="400" type="curve"/>
      <point x="206" y="292" type="line"/>
      <point x="246" y="316"/>
      <point x="280" y="338"/>
      <point x="318" y="366" type="curve"/>
      <point x="318" y="318" type="line" smooth="yes"/>
      <point x="318" y="116"/>
      <point x="430" y="-24"/>
    </contour>
    <contour>
      <point x="616" y="1370" type="curve" smooth="yes"/>
      <point x="692" y="1370"/>
      <point x="746" y="1320"/>
      <point x="746" y="1184" type="curve" smooth="yes"/>
      <point x="746" y="1150" type="line" smooth="yes"/>
      <point x="746" y="970"/>
      <point x="650" y="796"/>
      <point x="476" y="618" type="curve"/>
      <point x="476" y="1124" type="line" smooth="yes"/>
      <point x="476" y="1310"/>
      <point x="534" y="1370"/>
    </contour>
  </outline>
</glyph>
<glyph name="Omega" format="1">
  <unicode hex="2126"/>
  <advance width="1200" height="1560"/>
  <outline>
    <contour>
      <point x="108" y="0" type="line" name="hr00"/>
      <point x="524" y="0" type="line"/>
      <point x="524" y="208" type="line"/>
      <point x="394" y="254"/>
      <point x="306" y="458"/>
      <point x="306" y="662" type="curve" smooth="yes"/>
      <point x="306" y="876" type="line" smooth="yes"/>
      <point x="306" y="1128"/>
      <point x="390" y="1276"/>
      <point x="600" y="1276" type="curve" smooth="yes"/>
      <point x="812" y="1276"/>
      <point x="894" y="1128"/>
      <point x="894" y="876" type="curve" smooth="yes"/>
      <point x="894" y="662" type="line" smooth="yes"/>
      <point x="894" y="458"/>
      <point x="806" y="254"/>
      <point x="676" y="208" type="curve"/>
      <point x="676" y="0" type="line"/>
      <point x="1092" y="0" type="line"/>
      <point x="1092" y="136" type="line"/>
      <point x="818" y="136" type="line"/>
      <point x="818" y="156" type="line"/>
      <point x="992" y="258"/>
      <point x="1072" y="488"/>
      <point x="1072" y="786" type="curve" smooth="yes"/>
      <point x="1072" y="1180"/>
      <point x="932" y="1420"/>
      <point x="600" y="1420" type="curve" smooth="yes"/>
      <point x="268" y="1420"/>
      <point x="128" y="1180"/>
      <point x="128" y="786" type="curve" smooth="yes"/>
      <point x="128" y="488"/>
      <point x="208" y="258"/>
      <point x="382" y="156" type="curve"/>
      <point x="382" y="136" type="line"/>
      <point x="108" y="136" type="line"/>
    </contour>
  </outline>
</glyph>
<glyph name="estimated" format="1">
  <unicode hex="212E"/>
  <advance width="1200" height="1560"/>
  <outline>
    <contour>
      <point x="290" y="698" type="line" name="hr00"/>
      <point x="1148" y="698" type="line"/>
      <point x="1148" y="1112"/>
      <point x="932" y="1420"/>
      <point x="600" y="1420" type="curve" smooth="yes"/>
      <point x="268" y="1420"/>
      <point x="52" y="1112"/>
      <point x="52" y="698" type="curve" smooth="yes"/>
      <point x="52" y="284"/>
      <point x="268" y="-24"/>
      <point x="600" y="-24" type="curve" smooth="yes"/>
      <point x="848" y="-24"/>
      <point x="998" y="120"/>
      <point x="1092" y="294" type="curve"/>
      <point x="1010" y="340" type="line"/>
      <point x="924" y="182"/>
      <point x="804" y="68"/>
      <point x="600" y="68" type="curve" smooth="yes"/>
      <point x="462" y="68"/>
      <point x="354" y="138"/>
      <point x="290" y="218" type="curve"/>
    </contour>
    <contour>
      <point x="290" y="778" type="line"/>
      <point x="290" y="1188" type="line"/>
      <point x="358" y="1270"/>
      <point x="464" y="1332"/>
      <point x="600" y="1332" type="curve" smooth="yes"/>
      <point x="736" y="1332"/>
      <point x="842" y="1270"/>
      <point x="910" y="1188" type="curve"/>
      <point x="910" y="778" type="line"/>
    </contour>
  </outline>
</glyph>
<glyph name="arrowleft" format="1">
  <unicode hex="2190"/>
  <advance width="1200" height="1560"/>
  <outline>
    <contour>
      <point x="40" y="698" type="line" name="hr00"/>
      <point x="454" y="284" type="line"/>
      <point x="550" y="380" type="line"/>
      <point x="378" y="552" type="line"/>
      <point x="278" y="636" type="line"/>
      <point x="280" y="642" type="line"/>
      <point x="472" y="630" type="line"/>
      <point x="1144" y="630" type="line"/>
      <point x="1144" y="766" type="line"/>
      <point x="472" y="766" type="line"/>
      <point x="280" y="754" type="line"/>
      <point x="278" y="760" type="line"/>
      <point x="378" y="844" type="line"/>
      <point x="550" y="1016" type="line"/>
      <point x="454" y="1112" type="line"/>
    </contour>
  </outline>
</glyph>
<glyph name="arrowupdown" format="1">
  <unicode hex="2195"/>
  <advance width="1200" height="1560"/>
  <outline>
    <contour>
      <point x="600" y="-24" type="line" name="hr00"/>
      <point x="1014" y="390" type="line"/>
      <point x="918" y="488" type="line"/>
      <point x="746" y="314" type="line"/>
      <point x="662" y="214" type="line"/>
      <point x="656" y="216" type="line"/>
      <point x="668" y="410" type="line"/>
      <point x="668" y="986" type="line"/>
      <point x="656" y="1180" type="line"/>
      <point x="662" y="1182" type="line"/>
      <point x="746" y="1082" type="line"/>
      <point x="918" y="908" type="line"/>
      <point x="1014" y="1006" type="line"/>
      <point x="600" y="1420" type="line"/>
      <point x="186" y="1006" type="line"/>
      <point x="282" y="908" type="line"/>
      <point x="454" y="1082" type="line"/>
      <point x="538" y="1182" type="line"/>
      <point x="544" y="1180" type="line"/>
      <point x="532" y="986" type="line"/>
      <point x="532" y="410" type="line"/>
      <point x="544" y="216" type="line"/>
      <point x="538" y="214" type="line"/>
      <point x="454" y="314" type="line"/>
      <point x="282" y="488" type="line"/>
      <point x="186" y="390" type="line"/>
    </contour>
  </outline>
</glyph>
<glyph name="arrowupleft" format="1">
  <unicode hex="2196"/>
  <advance width="1200" height="1560"/>
  <outline>
    <contour>
      <point x="118" y="1228" type="line" name="hr00"/>
      <point x="118" y="642" type="line"/>
      <point x="254" y="642" type="line"/>
      <point x="254" y="886" type="line"/>
      <point x="242" y="1016" type="line"/>
      <point x="248" y="1018" type="line"/>
      <point x="376" y="874" type="line"/>
      <point x="1048" y="202" type="line"/>
      <point x="1144" y="298" type="line"/>
      <point x="472" y="970" type="line"/>
      <point x="328" y="1098" type="line"/>
      <point x="330" y="1104" type="line"/>
      <point x="460" y="1092" type="line"/>
      <point x="704" y="1092" type="line"/>
      <point x="704" y="1228" type="line"/>
    </contour>
  </outline>
</glyph>
<glyph name="arrowdownright" format="1">
  <unicode hex="2198"/>
  <advance width="1200" height="1560"/>
  <outline>
    <contour>
      <point x="1082" y="202" type="line" name="hr00"/>
      <point x="1082" y="788" type="line"/>
      <point x="946" y="788" type="line"/>
      <point x="946" y="544" type="line"/>
      <point x="958" y="414" type="line"/>
      <point x="952" y="412" type="line"/>
      <point x="824" y="556" type="line"/>
      <point x="152" y="1228" type="line"/>
      <point x="56" y="1132" type="line"/>
      <point x="728" y="460" type="line"/>
      <point x="872" y="332" type="line"/>
      <point x="870" y="326" type="line"/>
      <point x="740" y="338" type="line"/>
      <point x="496" y="338" type="line"/>
      <point x="496" y="202" type="line"/>
    </contour>
  </outline>
</glyph>
<glyph name="arrowdownleft" format="1">
  <unicode hex="2199"/>
  <advance width="1200" height="1560"/>
  <outline>
    <contour>
      <point x="118" y="202" type="line" name="hr00"/>
      <point x="704" y="202" type="line"/>
      <point x="704" y="338" type="line"/>
      <point x="460" y="338" type="line"/>
      <point x="330" y="326" type="line"/>
      <point x="328" y="332" type="line"/>
      <point x="472" y="460" type="line"/>
      <point x="1144" y="1132" type="line"/>
      <point x="1048" y="1228" type="line"/>
      <point x="376" y="556" type="line"/>
      <point x="248" y="412" type="line"/>
      <point x="242" y="414" type="line"/>
      <point x="254" y="544" type="line"/>
      <point x="254" y="788" type="line"/>
      <point x="118" y="788" type="line"/>
    </contour>
  </outline>
</glyph>
<glyph name="arrowhookleft" format="1">
  <unicode hex="21A9"/>
  <advance width="1200" height="1560"/>
  <outline>
    <contour>
      <point x="40" y="568" type="line" name="hr00"/>
      <point x="454" y="154" type="line"/>
      <point x="552" y="250" type="line"/>
      <point x="378" y="422" type="line"/>
      <point x="278" y="506" type="line"/>
      <point x="280" y="512" type="line"/>
      <point x="474" y="500" type="line"/>
      <point x="748" y="500" type="line" smooth="yes"/>
      <point x="970" y="500"/>
      <point x="1160" y="624"/>
      <point x="1160" y="872" type="curve" smooth="yes"/>
      <point x="1160" y="1120"/>
      <point x="970" y="1244"/>
      <point x="748" y="1244" type="curve"/>
      <point x="748" y="1108" type="line"/>
      <point x="886" y="1108"/>
      <point x="1012" y="1038"/>
      <point x="1012" y="872" type="curve" smooth="yes"/>
      <point x="1012" y="706"/>
      <point x="886" y="636"/>
      <point x="748" y="636" type="curve" smooth="yes"/>
      <point x="474" y="636" type="line"/>
      <point x="280" y="624" type="line"/>
      <point x="278" y="630" type="line"/>
      <point x="378" y="714" type="line"/>
      <point x="552" y="886" type="line"/>
      <point x="454" y="982" type="line"/>
    </contour>
  </outline>
</glyph>
<glyph name="arrowuprightcorner" format="1">
  <unicode hex="21B1"/>
  <advance width="1200" height="1560"/>
  <outline>
    <contour>
      <point x="1118" y="982" type="line" name="hr00"/>
      <point x="704" y="1396" type="line"/>
      <point x="608" y="1300" type="line"/>
      <point x="780" y="1128" type="line"/>
      <point x="880" y="1044" type="line"/>
      <point x="878" y="1038" type="line"/>
      <point x="686" y="1050" type="line"/>
      <point x="164" y="1050" type="line"/>
      <point x="164" y="0" type="line"/>
      <point x="300" y="0" type="line"/>
      <point x="300" y="914" type="line"/>
      <point x="686" y="914" type="line"/>
      <point x="878" y="926" type="line"/>
      <point x="880" y="920" type="line"/>
      <point x="780" y="836" type="line"/>
      <point x="608" y="664" type="line"/>
      <point x="704" y="568" type="line"/>
    </contour>
  </outline>
</glyph>
<glyph name="arrowdownleftcorner" format="1">
  <unicode hex="21B2"/>
  <advance width="1200" height="1560"/>
  <outline>
    <contour>
      <point x="82" y="414" type="line" name="hr00"/>
      <point x="496" y="0" type="line"/>
      <point x="592" y="96" type="line"/>
      <point x="420" y="268" type="line"/>
      <point x="320" y="352" type="line"/>
      <point x="322" y="358" type="line"/>
      <point x="514" y="346" type="line"/>
      <point x="1036" y="346" type="line"/>
      <point x="1036" y="1396" type="line"/>
      <point x="900" y="1396" type="line"/>
      <point x="900" y="482" type="line"/>
      <point x="514" y="482" type="line"/>
      <point x="322" y="470" type="line"/>
      <point x="320" y="476" type="line"/>
      <point x="420" y="560" type="line"/>
      <point x="592" y="732" type="line"/>
      <point x="496" y="828" type="line"/>
    </contour>
  </outline>
</glyph>
<glyph name="arrowuprightclock" format="1">
  <unicode hex="21BB"/>
  <advance width="1200" height="1560"/>
  <outline>
    <contour>
      <point x="648" y="1396" type="line" name="hr00"/>
      <point x="72" y="1396" type="line"/>
      <point x="72" y="1260" type="line"/>
      <point x="302" y="1260" type="line"/>
      <point x="424" y="1270" type="line"/>
      <point x="426" y="1264" type="line"/>
      <point x="346" y="1198" type="line" smooth="yes"/>
      <point x="202" y="1080"/>
      <point x="52" y="918"/>
      <point x="52" y="602" type="curve" smooth="yes"/>
      <point x="52" y="234"/>
      <point x="268" y="-24"/>
      <point x="598" y="-24" type="curve" smooth="yes"/>
      <point x="916" y="-24"/>
      <point x="1148" y="216"/>
      <point x="1148" y="592" type="curve" smooth="yes"/>
      <point x="1148" y="848"/>
      <point x="1014" y="1068"/>
      <point x="818" y="1186" type="curve"/>
      <point x="742" y="1088" type="line"/>
      <point x="918" y="976"/>
      <point x="1012" y="812"/>
      <point x="1012" y="592" type="curve" smooth="yes"/>
      <point x="1012" y="290"/>
      <point x="842" y="100"/>
      <point x="598" y="100" type="curve" smooth="yes"/>
      <point x="346" y="100"/>
      <point x="188" y="316"/>
      <point x="188" y="602" type="curve" smooth="yes"/>
      <point x="188" y="842"/>
      <point x="288" y="976"/>
      <point x="430" y="1096" type="curve" smooth="yes"/>
      <point x="516" y="1168" type="line"/>
      <point x="522" y="1166" type="line"/>
      <point x="512" y="1052" type="line"/>
      <point x="512" y="820" type="line"/>
      <point x="648" y="820" type="line"/>
    </contour>
  </outline>
</glyph>
<glyph name="product" format="1">
  <unicode hex="220F"/>
  <advance width="1200" height="1560"/>
  <outline>
    <contour>
      <point x="156" y="0" type="line" name="hr00"/>
      <point x="324" y="0" type="line"/>
      <point x="324" y="1250" type="line"/>
      <point x="876" y="1250" type="line"/>
      <point x="876" y="0" type="line"/>
      <point x="1044" y="0" type="line"/>
      <point x="1044" y="1396" type="line"/>
      <point x="156" y="1396" type="line"/>
    </contour>
  </outline>
</glyph>
<glyph name="radical" format="1">
  <unicode hex="221A"/>
  <advance width="1200" height="1560"/>
  <outline>
    <contour>
      <point x="734" y="0" type="line" name="hr00"/>
      <point x="1144" y="1396" type="line"/>
      <point x="988" y="1396" type="line"/>
      <point x="790" y="702" type="line"/>
      <point x="628" y="134" type="line"/>
      <point x="618" y="134" type="line"/>
      <point x="464" y="702" type="line"/>
      <point x="374" y="1032" type="line"/>
      <point x="48" y="1032" type="line"/>
      <point x="48" y="904" type="line"/>
      <point x="252" y="904" type="line"/>
      <point x="506" y="0" type="line"/>
    </contour>
  </outline>
</glyph>
<glyph name="greaterequal" format="1">
  <unicode hex="2265"/>
  <advance width="1200" height="1560"/>
  <outline>
    <contour>
      <point x="170" y="242" type="line" name="hr00"/>
      <point x="1030" y="626" type="line"/>
      <point x="1030" y="804" type="line"/>
      <point x="170" y="1186" type="line"/>
      <point x="170" y="1022" type="line"/>
      <point x="880" y="720" type="line"/>
      <point x="880" y="706" type="line"/>
      <point x="170" y="402" type="line"/>
    </contour>
    <contour>
      <point x="170" y="0" type="line"/>
      <point x="1030" y="0" type="line"/>
      <point x="1030" y="136" type="line"/>
      <point x="170" y="136" type="line"/>
    </contour>
  </outline>
</glyph>
<glyph name="lozenge" format="1">
  <unicode hex="25CA"/>
  <advance width="1200" height="1560"/>
  <outline>
    <contour>
      <point x="682" y="0" type="line" name="hr00"/>
      <point x="1118" y="698" type="line"/>
      <point x="682" y="1396" type="line"/>
      <point x="520" y="1396" type="line"/>
      <point x="84" y="698" type="line"/>
      <point x="520" y="0" type="line"/>
    </contour>
    <contour>
      <point x="594" y="150" type="line"/>
      <point x="252" y="698" type="line"/>
      <point x="594" y="1246" type="line"/>
      <point x="608" y="1246" type="line"/>
      <point x="950" y="698" type="line"/>
      <point x="608" y="150" type="line"/>
    </contour>
  </outline>
</glyph>
<glyph name="arrowrightdowncorner" format="1">
  <unicode hex="2B0E"/>
  <advance width="1200" height="1560"/>
  <outline>
    <contour>
      <point x="728" y="202" type="line" name="hr00"/>
      <point x="1142" y="616" type="line"/>
      <point x="1046" y="714" type="line"/>
      <point x="874" y="540" type="line"/>
      <point x="790" y="440" type="line"/>
      <point x="784" y="442" type="line"/>
      <point x="796" y="636" type="line"/>
      <point x="796" y="1196" type="line"/>
      <point x="52" y="1196" type="line"/>
      <point x="52" y="1060" type="line"/>
      <point x="660" y="1060" type="line"/>
      <point x="660" y="636" type="line"/>
      <point x="672" y="442" type="line"/>
      <point x="666" y="440" type="line"/>
      <point x="582" y="540" type="line"/>
      <point x="410" y="714" type="line"/>
      <point x="314" y="616" type="line"/>
    </contour>
  </outline>
</glyph>
<glyph name="fi" format="1">
  <unicode hex="FB01"/>
  <advance width="1200" height="1560"/>
  <outline>
    <contour>
      <point x="216" y="0" type="line"/>
      <point x="376" y="0" type="line"/>
      <point x="376" y="896" type="line"/>
      <point x="844" y="896" type="line"/>
      <point x="844" y="0" type="line"/>
      <point x="1004" y="0" type="line"/>
      <point x="1004" y="1032" type="line"/>
      <point x="376" y="1032" type="line"/>
      <point x="376" y="1344" type="line"/>
      <point x="670" y="1344" type="line"/>
      <point x="670" y="1480" type="line"/>
      <point x="444" y="1480" type="line" smooth="yes"/>
      <point x="288" y="1480"/>
      <point x="216" y="1382"/>
      <point x="216" y="1244" type="curve" smooth="yes"/>
      <point x="216" y="1032" type="line"/>
      <point x="76" y="1032" type="line"/>
      <point x="76" y="896" type="line"/>
      <point x="216" y="896" type="line"/>
    </contour>
    <contour>
      <point x="924" y="1260" type="curve" smooth="yes" name="hr01"/>
      <point x="1016" y="1260"/>
      <point x="1050" y="1304"/>
      <point x="1050" y="1362" type="curve" smooth="yes"/>
      <point x="1050" y="1394" type="line" smooth="yes"/>
      <point x="1050" y="1452"/>
      <point x="1016" y="1496"/>
      <point x="924" y="1496" type="curve" smooth="yes"/>
      <point x="832" y="1496"/>
      <point x="798" y="1452"/>
      <point x="798" y="1394" type="curve" smooth="yes"/>
      <point x="798" y="1362" type="line" smooth="yes"/>
      <point x="798" y="1304"/>
      <point x="832" y="1260"/>
    </contour>
  </outline>
</glyph>
<glyph name="asciitilde_asciitilde_greater.liga" format="1">
  <advance width="1200"/>
  <outline>
    <contour>
      <point x="538" y="594" type="curve" smooth="yes"/>
      <point x="388" y="594"/>
      <point x="344" y="794"/>
      <point x="122" y="794" type="curve" smooth="yes"/>
      <point x="-102" y="794"/>
      <point x="-146" y="594"/>
      <point x="-294" y="594" type="curve" smooth="yes"/>
      <point x="-440" y="594"/>
      <point x="-498" y="794"/>
      <point x="-710" y="794" type="curve" smooth="yes"/>
      <point x="-936" y="794"/>
      <point x="-978" y="594"/>
      <point x="-1128" y="594" type="curve" smooth="yes"/>
      <point x="-1278" y="594"/>
      <point x="-1320" y="794"/>
      <point x="-1544" y="794" type="curve" smooth="yes"/>
      <point x="-1768" y="794"/>
      <point x="-1812" y="594"/>
      <point x="-1960" y="594" type="curve" smooth="yes"/>
      <point x="-2042" y="594"/>
      <point x="-2128" y="672"/>
      <point x="-2178" y="766" type="curve"/>
      <point x="-2296" y="700" type="line"/>
      <point x="-2260" y="626"/>
      <point x="-2114" y="478"/>
      <point x="-1960" y="478" type="curve" smooth="yes"/>
      <point x="-1738" y="478"/>
      <point x="-1694" y="678"/>
      <point x="-1544" y="678" type="curve" smooth="yes"/>
      <point x="-1394" y="678"/>
      <point x="-1354" y="466"/>
      <point x="-1128" y="466" type="curve" smooth="yes"/>
      <point x="-904" y="466"/>
      <point x="-860" y="650"/>
      <point x="-710" y="650" type="curve" smooth="yes"/>
      <point x="-566" y="650"/>
      <point x="-508" y="478"/>
      <point x="-294" y="478" type="curve" smooth="yes"/>
      <point x="-72" y="478"/>
      <point x="-28" y="678"/>
      <point x="122" y="678" type="curve" smooth="yes"/>
      <point x="272" y="678"/>
      <point x="312" y="466"/>
      <point x="538" y="466" type="curve" smooth="yes"/>
      <point x="742" y="466"/>
      <point x="774" y="602"/>
      <point x="936" y="626" type="curve"/>
      <point x="936" y="764" type="line"/>
      <point x="728" y="764"/>
      <point x="678" y="594"/>
    </contour>
    <contour>
      <point x="1120" y="612" type="line" name="hr00"/>
      <point x="494" y="1238" type="line"/>
      <point x="382" y="1126" type="line"/>
      <point x="572" y="942" type="line"/>
      <point x="922" y="622" type="line"/>
      <point x="922" y="602" type="line"/>
      <point x="564" y="272" type="line"/>
      <point x="382" y="98" type="line"/>
      <point x="494" y="-14" type="line"/>
    </contour>
  </outline>
</glyph>
<glyph name="asciitilde_equal.liga" format="1">
  <advance width="1200"/>
  <outline>
    <contour>
      <point x="-622" y="480" type="line"/>
      <point x="718" y="480" type="line"/>
      <point x="718" y="344" type="line"/>
      <point x="-622" y="344" type="line"/>
    </contour>
    <contour>
      <point x="-276" y="1020" type="curve" smooth="yes"/>
      <point x="-46" y="1020"/>
      <point x="144" y="820"/>
      <point x="300" y="820" type="curve" smooth="yes"/>
      <point x="440" y="820"/>
      <point x="568" y="892"/>
      <point x="626" y="982" type="curve"/>
      <point x="756" y="900" type="line"/>
      <point x="694" y="810"/>
      <point x="526" y="678"/>
      <point x="294" y="678" type="curve" smooth="yes"/>
      <point x="76" y="678"/>
      <point x="-124" y="880"/>
      <point x="-282" y="880" type="curve" smooth="yes"/>
      <point x="-420" y="880"/>
      <point x="-476" y="808"/>
      <point x="-528" y="712" type="curve"/>
      <point x="-646" y="792" type="line"/>
      <point x="-594" y="894"/>
      <point x="-502" y="1020"/>
    </contour>
  </outline>
</glyph>
<glyph name="breve.cyrl_case" format="1">
  <advance width="1200" height="1560"/>
  <outline>
    <contour>
      <point x="600" y="1530" type="curve" smooth="yes" name="hr00"/>
      <point x="736" y="1530"/>
      <point x="814" y="1588"/>
      <point x="878" y="1716" type="curve" smooth="yes"/>
      <point x="934" y="1830" type="line"/>
      <point x="790" y="1876" type="line"/>
      <point x="710" y="1664" type="line"/>
      <point x="682" y="1654"/>
      <point x="632" y="1652"/>
      <point x="600" y="1652" type="curve" smooth="yes"/>
      <point x="568" y="1652"/>
      <point x="518" y="1654"/>
      <point x="490" y="1664" type="curve"/>
      <point x="410" y="1876" type="line"/>
      <point x="266" y="1830" type="line"/>
      <point x="322" y="1716" type="line" smooth="yes"/>
      <point x="386" y="1588"/>
      <point x="464" y="1530"/>
    </contour>
    <contour>
      <point x="600" y="1396" type="move" name="_top"/>
    </contour>
  </outline>
</glyph>
<glyph name="brevegrave" format="1">
  <advance width="0" height="1560"/>
  <outline>
    <contour>
      <point x="2" y="1170" type="curve" smooth="yes" name="hr00"/>
      <point x="216" y="1170"/>
      <point x="294" y="1330"/>
      <point x="332" y="1448" type="curve"/>
      <point x="238" y="1494" type="line"/>
      <point x="196" y="1430" type="line" smooth="yes"/>
      <point x="132" y="1334"/>
      <point x="88" y="1298"/>
      <point x="0" y="1298" type="curve" smooth="yes"/>
      <point x="-88" y="1298"/>
      <point x="-132" y="1334"/>
      <point x="-196" y="1430" type="curve" smooth="yes"/>
      <point x="-238" y="1494" type="line"/>
      <point x="-332" y="1448" type="line"/>
      <point x="-290" y="1318"/>
      <point x="-206" y="1170"/>
    </contour>
    <contour>
      <point x="-14" y="1416" type="line"/>
      <point x="84" y="1462" type="line"/>
      <point x="-86" y="1802" type="line"/>
      <point x="-226" y="1734" type="line"/>
    </contour>
    <contour>
      <point x="0" y="1032" type="move" name="_top"/>
    </contour>
  </outline>
</glyph>
<glyph name="circumflexgrave" format="1">
  <advance width="0" height="1560"/>
  <outline>
    <contour>
      <point x="-308" y="1424" type="line" name="hr00"/>
      <point x="-210" y="1470" type="line"/>
      <point x="-380" y="1810" type="line"/>
      <point x="-520" y="1742" type="line"/>
    </contour>
    <contour>
      <point x="-100" y="1510" type="line"/>
      <point x="-320" y="1222" type="line"/>
      <point x="-236" y="1162" type="line"/>
      <point x="-2" y="1400" type="line"/>
      <point x="232" y="1162" type="line"/>
      <point x="320" y="1222" type="line"/>
      <point x="100" y="1510" type="line"/>
    </contour>
    <contour>
      <point x="0" y="1032" type="move" name="_top"/>
    </contour>
  </outline>
</glyph>
<glyph name="circumflexhook.case" format="1">
  <advance width="0" height="1560"/>
  <outline>
    <contour>
      <point x="106" y="2006" type="line" name="hr00"/>
      <point x="342" y="2006" type="line"/>
      <point x="226" y="1798" type="line"/>
      <point x="318" y="1752" type="line"/>
      <point x="366" y="1812" type="line" smooth="yes"/>
      <point x="428" y="1890"/>
      <point x="464" y="1960"/>
      <point x="464" y="2018" type="curve" smooth="yes"/>
      <point x="464" y="2078"/>
      <point x="426" y="2128"/>
      <point x="324" y="2128" type="curve" smooth="yes"/>
      <point x="106" y="2128" type="line"/>
    </contour>
    <contour>
      <point x="-100" y="1850" type="line"/>
      <point x="-320" y="1562" type="line"/>
      <point x="-236" y="1502" type="line"/>
      <point x="-2" y="1740" type="line"/>
      <point x="232" y="1502" type="line"/>
      <point x="320" y="1562" type="line"/>
      <point x="100" y="1850" type="line"/>
    </contour>
    <contour>
      <point x="0" y="1396" type="move" name="_top"/>
    </contour>
  </outline>
</glyph>
<glyph name="circumflextilde" format="1">
  <advance width="0" height="1560"/>
  <outline>
    <contour>
      <point x="-144" y="1784" type="curve" smooth="yes"/>
      <point x="-236" y="1784"/>
      <point x="-298" y="1732"/>
      <point x="-334" y="1678" type="curve"/>
      <point x="-272" y="1606" type="line"/>
      <point x="-232" y="1640"/>
      <point x="-200" y="1660"/>
      <point x="-156" y="1660" type="curve" smooth="yes"/>
      <point x="-122" y="1660"/>
      <point x="-80" y="1646"/>
      <point x="-16" y="1612" type="curve" smooth="yes"/>
      <point x="26" y="1590"/>
      <point x="74" y="1560"/>
      <point x="144" y="1560" type="curve" smooth="yes" name="hr01"/>
      <point x="236" y="1560"/>
      <point x="298" y="1612"/>
      <point x="334" y="1666" type="curve"/>
      <point x="272" y="1738" type="line"/>
      <point x="232" y="1704"/>
      <point x="200" y="1684"/>
      <point x="156" y="1684" type="curve" smooth="yes"/>
      <point x="122" y="1684"/>
      <point x="80" y="1698"/>
      <point x="16" y="1732" type="curve" smooth="yes"/>
      <point x="-26" y="1754"/>
      <point x="-74" y="1784"/>
    </contour>
    <contour>
      <point x="-100" y="1490" type="line"/>
      <point x="-320" y="1222" type="line"/>
      <point x="-236" y="1162" type="line"/>
      <point x="-2" y="1384" type="line"/>
      <point x="232" y="1162" type="line"/>
      <point x="320" y="1222" type="line"/>
      <point x="100" y="1490" type="line"/>
    </contour>
    <contour>
      <point x="0" y="1032" type="move" name="_top"/>
    </contour>
  </outline>
</glyph>
<glyph name="dieresiscaron" format="1">
  <advance width="0" height="1560"/>
  <outline>
    <contour>
      <point x="88" y="1458" type="line" name="hr00"/>
      <point x="320" y="1746" type="line"/>
      <point x="232" y="1806" type="line"/>
      <point x="-2" y="1576" type="line"/>
      <point x="-236" y="1806" type="line"/>
      <point x="-320" y="1746" type="line"/>
      <point x="-88" y="1458" type="line"/>
    </contour>
    <contour>
      <point x="-198" y="1194" type="curve" smooth="yes"/>
      <point x="-116" y="1194"/>
      <point x="-84" y="1234"/>
      <point x="-84" y="1286" type="curve" smooth="yes"/>
      <point x="-84" y="1314" type="line" smooth="yes"/>
      <point x="-84" y="1366"/>
      <point x="-116" y="1406"/>
      <point x="-198" y="1406" type="curve" smooth="yes"/>
      <point x="-280" y="1406"/>
      <point x="-312" y="1366"/>
      <point x="-312" y="1314" type="curve" smooth="yes"/>
      <point x="-312" y="1286" type="line" smooth="yes"/>
      <point x="-312" y="1234"/>
      <point x="-280" y="1194"/>
    </contour>
    <contour>
      <point x="198" y="1194" type="curve" smooth="yes"/>
      <point x="280" y="1194"/>
      <point x="312" y="1234"/>
      <point x="312" y="1286" type="curve" smooth="yes"/>
      <point x="312" y="1314" type="line" smooth="yes"/>
      <point x="312" y="1366"/>
      <point x="280" y="1406"/>
      <point x="198" y="1406" type="curve" smooth="yes"/>
      <point x="116" y="1406"/>
      <point x="84" y="1366"/>
      <point x="84" y="1314" type="curve" smooth="yes"/>
      <point x="84" y="1286" type="line" smooth="yes"/>
      <point x="84" y="1234"/>
      <point x="116" y="1194"/>
    </contour>
    <contour>
      <point x="0" y="1032" type="move" name="_top"/>
    </contour>
  </outline>
</glyph>
<glyph name="exclam_equal.liga" format="1">
  <advance width="1200"/>
  <outline>
    <contour>
      <point x="1074" y="744" type="line" name="hr00.1"/>
      <point x="1074" y="880" type="line"/>
      <point x="-1080" y="880" type="line"/>
      <point x="-1080" y="744" type="line"/>
    </contour>
    <contour>
      <point x="1074" y="344" type="line"/>
      <point x="1074" y="480" type="line"/>
      <point x="-1080" y="480" type="line"/>
      <point x="-1080" y="344" type="line"/>
    </contour>
    <contour>
      <point x="426" y="1200" type="line" name="hr00.1"/>
      <point x="322" y="1260" type="line"/>
      <point x="-418" y="8" type="line"/>
      <point x="-314" y="-52" type="line"/>
    </contour>
  </outline>
</glyph>
<glyph name="grave.case" format="1">
  <advance width="1200" height="1560"/>
  <outline>
    <contour>
      <point x="586" y="1510" type="line" name="hr00"/>
      <point x="690" y="1558" type="line"/>
      <point x="520" y="1898" type="line"/>
      <point x="374" y="1828" type="line"/>
    </contour>
    <contour>
      <point x="600" y="1396" type="move" name="_top"/>
    </contour>
  </outline>
</glyph>
<glyph name="greater_equal.liga" format="1">
  <advance width="1200"/>
  <outline>
    <contour>
      <point x="-636.991" y="-366" type="line" name="hr00"/>
      <point x="488.953" y="134" type="line"/>
      <point x="488.953" y="302" type="line"/>
      <point x="-636.991" y="-200" type="line"/>
    </contour>
    <contour>
      <point x="-636.991" y="106" type="line" name="hr00.1"/>
      <point x="486.341" y="604" type="line"/>
      <point x="486.341" y="764" type="line"/>
      <point x="-636.991" y="1262" type="line"/>
      <point x="-636.991" y="1092" type="line"/>
      <point x="290.411" y="690" type="line"/>
      <point x="290.411" y="674" type="line"/>
      <point x="-636.991" y="272" type="line"/>
    </contour>
  </outline>
</glyph>
<glyph name="hookcomb.case" format="1">
  <advance width="0" height="1560"/>
  <outline>
    <contour>
      <point x="-168" y="1748" type="line" name="hr00"/>
      <point x="68" y="1748" type="line"/>
      <point x="-48" y="1540" type="line"/>
      <point x="44" y="1494" type="line"/>
      <point x="92" y="1554" type="line" smooth="yes"/>
      <point x="154" y="1632"/>
      <point x="190" y="1702"/>
      <point x="190" y="1760" type="curve" smooth="yes"/>
      <point x="190" y="1820"/>
      <point x="152" y="1870"/>
      <point x="50" y="1870" type="curve" smooth="yes"/>
      <point x="-168" y="1870" type="line"/>
    </contour>
    <contour>
      <point x="0" y="1396" type="move" name="_top"/>
    </contour>
  </outline>
</glyph>
<glyph name="less_equal_greater.liga" format="1">
  <advance width="1200" height="780"/>
  <outline>
    <contour>
      <point x="-2109" y="610" type="line" name="hr00"/>
      <point x="-1483" y="1236" type="line" name="mv02"/>
      <point x="-1371" y="1124" type="line" name="mv05"/>
      <point x="-1561" y="940" type="line"/>
      <point x="-1663" y="860" type="line"/>
      <point x="-1751" y="756" type="line"/>
      <point x="-1911" y="608" type="line"/>
      <point x="-1911" y="600" type="line"/>
      <point x="-1755" y="462" type="line"/>
      <point x="-1663" y="362" type="line"/>
      <point x="-1553" y="270" type="line"/>
      <point x="-1371" y="96" type="line" name="mv04"/>
      <point x="-1483" y="-16" type="line" name="mv03"/>
    </contour>
    <contour>
      <point x="-1791" y="878" type="line" name="sh01"/>
      <point x="820.999" y="878" type="line"/>
      <point x="820.999" y="742" type="line"/>
      <point x="-1791" y="742" type="line"/>
    </contour>
    <contour>
      <point x="-1791" y="478" type="line" name="mv01"/>
      <point x="820.999" y="478" type="line"/>
      <point x="820.999" y="342" type="line"/>
      <point x="-1791" y="342" type="line"/>
    </contour>
    <contour>
      <point x="1139" y="610" type="line" name="hr00.1"/>
      <point x="512.999" y="-16" type="line" name="fv03"/>
      <point x="400.999" y="96" type="line" name="fv04"/>
      <point x="582.999" y="270" type="line" name="fv02"/>
      <point x="692.999" y="362" type="line"/>
      <point x="784.999" y="462" type="line"/>
      <point x="940.999" y="600" type="line"/>
      <point x="940.999" y="608" type="line"/>
      <point x="780.999" y="756" type="line"/>
      <point x="692.999" y="860" type="line"/>
      <point x="590.999" y="940" type="line" name="fv05"/>
      <point x="400.999" y="1124" type="line"/>
      <point x="512.999" y="1236" type="line" name="fv01"/>
    </contour>
  </outline>
</glyph>
<glyph name="macron.case" format="1">
  <advance width="1200" height="1560"/>
  <outline>
    <contour>
      <point x="320" y="1614" type="line" name="hr00"/>
      <point x="880" y="1614" type="line"/>
      <point x="880" y="1750" type="line"/>
      <point x="320" y="1750" type="line"/>
    </contour>
    <contour>
      <point x="600" y="1396" type="move" name="_top"/>
    </contour>
  </outline>
</glyph>
<glyph name="nine.numr" format="1">
  <advance width="1200" height="1560"/>
  <outline>
    <contour>
      <point x="430" y="726" type="curve" name="hr00"/>
      <point x="604" y="726" type="line"/>
      <point x="720" y="802"/>
      <point x="854" y="952"/>
      <point x="854" y="1144" type="curve" smooth="yes"/>
      <point x="854" y="1304"/>
      <point x="758" y="1408"/>
      <point x="598" y="1408" type="curve" smooth="yes"/>
      <point x="442" y="1408"/>
      <point x="342" y="1310"/>
      <point x="342" y="1174" type="curve" smooth="yes"/>
      <point x="342" y="1048"/>
      <point x="430" y="966"/>
      <point x="550" y="966" type="curve" smooth="yes"/>
      <point x="644" y="966"/>
      <point x="696" y="1016"/>
      <point x="724" y="1070" type="curve"/>
      <point x="736" y="1068" type="line"/>
      <point x="704" y="932"/>
      <point x="598" y="842"/>
    </contour>
    <contour>
      <point x="598" y="1058" type="curve" smooth="yes"/>
      <point x="520" y="1058"/>
      <point x="468" y="1102"/>
      <point x="468" y="1174" type="curve" smooth="yes"/>
      <point x="468" y="1196" type="line" smooth="yes"/>
      <point x="468" y="1268"/>
      <point x="520" y="1312"/>
      <point x="598" y="1312" type="curve" smooth="yes"/>
      <point x="676" y="1312"/>
      <point x="728" y="1268"/>
      <point x="728" y="1196" type="curve" smooth="yes"/>
      <point x="728" y="1174" type="line" smooth="yes"/>
      <point x="728" y="1102"/>
      <point x="676" y="1058"/>
    </contour>
  </outline>
</glyph>
<glyph name="six.dnom" format="1">
  <advance width="1200" height="1560"/>
  <outline>
    <contour>
      <point x="602" y="-12" type="curve" smooth="yes" name="hr00"/>
      <point x="758" y="-12"/>
      <point x="858" y="86"/>
      <point x="858" y="222" type="curve" smooth="yes"/>
      <point x="858" y="348"/>
      <point x="770" y="430"/>
      <point x="650" y="430" type="curve" smooth="yes"/>
      <point x="556" y="430"/>
      <point x="504" y="380"/>
      <point x="476" y="326" type="curve"/>
      <point x="464" y="328" type="line"/>
      <point x="496" y="464"/>
      <point x="602" y="554"/>
      <point x="770" y="670" type="curve"/>
      <point x="596" y="670" type="line"/>
      <point x="480" y="594"/>
      <point x="346" y="444"/>
      <point x="346" y="252" type="curve" smooth="yes"/>
      <point x="346" y="92"/>
      <point x="442" y="-12"/>
    </contour>
    <contour>
      <point x="602" y="84" type="curve" smooth="yes"/>
      <point x="524" y="84"/>
      <point x="472" y="128"/>
      <point x="472" y="200" type="curve" smooth="yes"/>
      <point x="472" y="222" type="line" smooth="yes"/>
      <point x="472" y="294"/>
      <point x="524" y="338"/>
      <point x="602" y="338" type="curve" smooth="yes"/>
      <point x="680" y="338"/>
      <point x="732" y="294"/>
      <point x="732" y="222" type="curve" smooth="yes"/>
      <point x="732" y="200" type="line" smooth="yes"/>
      <point x="732" y="128"/>
      <point x="680" y="84"/>
    </contour>
  </outline>
</glyph>
<glyph name="three.numr" format="1">
  <advance width="1200" height="1560"/>
  <outline>
    <contour>
      <point x="586" y="714" type="curve" smooth="yes"/>
      <point x="736" y="714"/>
      <point x="838" y="792"/>
      <point x="838" y="912" type="curve" smooth="yes"/>
      <point x="838" y="1006"/>
      <point x="772" y="1058"/>
      <point x="686" y="1072" type="curve"/>
      <point x="686" y="1080" type="line"/>
      <point x="762" y="1094"/>
      <point x="826" y="1146"/>
      <point x="826" y="1234" type="curve" smooth="yes" name="hr01"/>
      <point x="826" y="1340"/>
      <point x="732" y="1408"/>
      <point x="590" y="1408" type="curve" smooth="yes"/>
      <point x="474" y="1408"/>
      <point x="406" y="1362"/>
      <point x="358" y="1292" type="curve"/>
      <point x="442" y="1224" type="line"/>
      <point x="474" y="1276"/>
      <point x="524" y="1306"/>
      <point x="586" y="1306" type="curve" smooth="yes"/>
      <point x="656" y="1306"/>
      <point x="698" y="1270"/>
      <point x="698" y="1218" type="curve" smooth="yes"/>
      <point x="698" y="1204" type="line" smooth="yes"/>
      <point x="698" y="1158"/>
      <point x="656" y="1122"/>
      <point x="572" y="1122" type="curve" smooth="yes"/>
      <point x="502" y="1122" type="line"/>
      <point x="502" y="1022" type="line"/>
      <point x="572" y="1022" type="line" smooth="yes"/>
      <point x="660" y="1022"/>
      <point x="710" y="990"/>
      <point x="710" y="930" type="curve" smooth="yes" name="hr02"/>
      <point x="710" y="916" type="line" smooth="yes"/>
      <point x="710" y="856"/>
      <point x="664" y="816"/>
      <point x="586" y="816" type="curve" smooth="yes"/>
      <point x="502" y="816"/>
      <point x="460" y="862"/>
      <point x="428" y="922" type="curve"/>
      <point x="334" y="856" type="line"/>
      <point x="376" y="782"/>
      <point x="448" y="714"/>
    </contour>
  </outline>
</glyph>
